<?xml version="1.0" encoding="UTF-8"?>
<svg width="135px" height="40px" viewBox="0 0 135 40" version="1.1" xmlns="http://www.w3.org/2000/svg" xmlns:xlink="http://www.w3.org/1999/xlink">
    <title>Available_on_the_App_Store_(black)_SVG</title>
    <defs>
        <linearGradient x1="50.0012509%" y1="100.270574%" x2="50.0012509%" y2="10.131036%" id="linearGradient-1">
            <stop stop-color="#1A1A1A" stop-opacity="0.1" offset="0%"></stop>
            <stop stop-color="#212121" stop-opacity="0.1506" offset="12.35%"></stop>
            <stop stop-color="#353535" stop-opacity="0.2265" offset="30.85%"></stop>
            <stop stop-color="#575757" stop-opacity="0.3181" offset="53.21%"></stop>
            <stop stop-color="#858585" stop-opacity="0.4212" offset="78.34%"></stop>
            <stop stop-color="#B3B3B3" stop-opacity="0.51" offset="100%"></stop>
        </linearGradient>
    </defs>
    <g id="Page-1" stroke="none" stroke-width="1" fill="none" fill-rule="evenodd">
        <g id="Available_on_the_App_Store_(black)_SVG" fill-rule="nonzero">
            <path d="M134.032,35.268 C134.032,37.384 132.318,39.098 130.198,39.098 L4.729,39.098 C2.61,39.098 0.89,37.384 0.89,35.268 L0.89,4.725 C0.89,2.61 2.61,0.89 4.729,0.89 L130.197,0.89 C132.318,0.89 134.032,2.61 134.032,4.725 L134.032,35.268 L134.032,35.268 Z" id="Path" fill="#FFFFFF"></path>
            <path d="M130.198,39.989 L4.729,39.989 C2.122,39.989 0,37.872 0,35.268 L0,4.726 C0,2.12 2.122,0 4.729,0 L130.197,0 C132.801,0 134.926001,2.12 134.926001,4.726 L134.926001,35.268 C134.928,37.872 132.803,39.989 130.198,39.989 L130.198,39.989 Z" id="Path" fill="#A6A6A6"></path>
            <path d="M134.032,35.268 C134.032,37.384 132.318,39.098 130.198,39.098 L4.729,39.098 C2.61,39.098 0.89,37.384 0.89,35.268 L0.89,4.725 C0.89,2.61 2.61,0.89 4.729,0.89 L130.197,0.89 C132.318,0.89 134.032,2.61 134.032,4.725 L134.032,35.268 L134.032,35.268 Z" id="Path" fill="#000000"></path>
            <path d="M30.128,19.784 C30.099,16.561 32.767,14.993 32.889,14.92 C31.378,12.717 29.036,12.416 28.213,12.392 C26.246,12.185 24.338,13.569 23.336,13.569 C22.314,13.569 20.771,12.412 19.108,12.446 C16.968,12.479 14.966,13.718 13.868,15.642 C11.602,19.565 13.292,25.33 15.463,28.501 C16.549,30.055 17.818,31.788 19.479,31.727 C21.104,31.661 21.711,30.692 23.672,30.692 C25.615,30.692 26.185,31.727 27.879,31.688 C29.623,31.661 30.721,30.128 31.769,28.561 C33.024,26.782 33.528,25.028 33.548,24.938 C33.508,24.924 30.162,23.646 30.128,19.784 Z" id="Path" fill="#FFFFFF"></path>
            <path d="M26.928,10.306 C27.802,9.213 28.4,7.726 28.234,6.217 C26.969,6.273 25.387,7.092 24.476,8.161 C23.67,9.103 22.95,10.647 23.136,12.099 C24.557,12.205 26.016,11.382 26.928,10.306 Z" id="Path" fill="#FFFFFF"></path>
            <path d="M130.198,0 L62.993,0 L89.316,39.989 L130.198,39.989 C132.802,39.989 134.927,37.872 134.927,35.265 L134.927,4.726 C134.928,2.12 132.803,0 130.198,0 Z" id="Path" fill="url(#linearGradient-1)"></path>
            <g id="Group" transform="translate(42.430000, 17.999000)" fill="#FFFFFF">
                <path d="M11.235,13.505 L8.964,13.505 L7.72,9.596 L3.396,9.596 L2.211,13.505 L7.10542736e-15,13.505 L4.285,0.197 L6.931,0.197 L11.235,13.505 Z M7.345,7.956 L6.22,4.481 C6.101,4.126 5.877,3.29 5.549,1.974 L5.509,1.974 C5.377,2.54 5.166,3.376 4.877,4.481 L3.771,7.956 L7.345,7.956 L7.345,7.956 Z" id="Shape"></path>
                <path d="M22.233,8.589 C22.233,10.221 21.79,11.511 20.903,12.458 C20.109,13.301 19.122,13.722 17.945,13.722 C16.674,13.722 15.76,13.269 15.205,12.361 L15.205,17.396 L13.073,17.396 L13.073,7.063 C13.073,6.038 13.046,4.987 12.994,3.909 L14.869,3.909 L14.988,5.43 L15.028,5.43 C15.739,4.284 16.818,3.711 18.266,3.711 C19.398,3.711 20.343,4.158 21.099,5.053 C21.854,5.95 22.233,7.128 22.233,8.589 Z M20.061,8.667 C20.061,7.733 19.851,6.963 19.429,6.356 C18.968,5.725 18.349,5.409 17.573,5.409 C17.047,5.409 16.569,5.585 16.142,5.932 C15.714,6.282 15.434,6.739 15.303,7.305 C15.237,7.569 15.204,7.784 15.204,7.954 L15.204,9.555 C15.204,10.252 15.418,10.841 15.846,11.323 C16.274,11.803 16.83,12.044 17.514,12.044 C18.317,12.044 18.942,11.733 19.389,11.116 C19.837,10.497 20.061,9.681 20.061,8.667 Z" id="Shape"></path>
                <path d="M33.27,8.589 C33.27,10.221 32.827,11.511 31.94,12.458 C31.145,13.301 30.159,13.722 28.981,13.722 C27.71,13.722 26.796,13.269 26.241,12.361 L26.241,17.396 L24.109,17.396 L24.109,7.063 C24.109,6.038 24.082,4.987 24.03,3.909 L25.905,3.909 L26.024,5.43 L26.064,5.43 C26.774,4.284 27.853,3.711 29.302,3.711 C30.433,3.711 31.378,4.158 32.136,5.053 C32.89,5.95 33.27,7.128 33.27,8.589 Z M31.097,8.667 C31.097,7.733 30.886,6.963 30.464,6.356 C30.003,5.725 29.386,5.409 28.61,5.409 C28.084,5.409 27.606,5.585 27.177,5.932 C26.749,6.282 26.47,6.739 26.339,7.305 C26.274,7.569 26.239,7.784 26.239,7.954 L26.239,9.555 C26.239,10.252 26.454,10.841 26.88,11.323 C27.308,11.802 27.864,12.044 28.55,12.044 C29.354,12.044 29.979,11.733 30.425,11.116 C30.873,10.497 31.097,9.681 31.097,8.667 Z" id="Shape"></path>
                <path d="M45.61,9.772 C45.61,10.905 45.214,11.826 44.427,12.537 C43.561,13.313 42.352,13.702 40.802,13.702 C39.37,13.702 38.222,13.426 37.356,12.873 L37.849,11.096 C38.784,11.65 39.811,11.926 40.929,11.926 C41.733,11.926 42.358,11.744 42.804,11.383 C43.251,11.021 43.477,10.537 43.477,9.933 C43.477,9.392 43.29,8.939 42.923,8.57 C42.554,8.202 41.944,7.859 41.087,7.544 C38.757,6.675 37.591,5.404 37.591,3.732 C37.591,2.64 38.003,1.746 38.825,1.047 C39.647,0.349 40.737,-3.55271368e-15 42.093,-3.55271368e-15 C43.304,-3.55271368e-15 44.313,0.211 45.114,0.632 L44.579,2.37 C43.825,1.962 42.974,1.758 42.022,1.758 C41.27,1.758 40.68,1.943 40.258,2.311 C39.903,2.64 39.723,3.041 39.723,3.517 C39.723,4.042 39.928,4.478 40.336,4.82 C40.69,5.135 41.336,5.478 42.27,5.846 C43.416,6.308 44.258,6.846 44.797,7.464 C45.34,8.082 45.61,8.853 45.61,9.772 Z" id="Path"></path>
                <path d="M52.677,5.509 L50.327,5.509 L50.327,10.168 C50.327,11.353 50.741,11.944 51.571,11.944 C51.952,11.944 52.268,11.912 52.518,11.845 L52.577,13.464 C52.157,13.621 51.604,13.7 50.919,13.7 C50.077,13.7 49.419,13.443 48.944,12.929 C48.471,12.415 48.233,11.554 48.233,10.342 L48.233,5.505 L46.833,5.505 L46.833,3.905 L48.233,3.905 L48.233,2.148 L50.327,1.516 L50.327,3.905 L52.677,3.905 L52.677,5.509 Z" id="Path"></path>
                <path d="M63.259,8.628 C63.259,10.103 62.837,11.314 61.995,12.261 C61.114,13.236 59.942,13.722 58.481,13.722 C57.071,13.722 55.95,13.255 55.114,12.322 C54.278,11.387 53.86,10.209 53.86,8.788 C53.86,7.301 54.292,6.083 55.153,5.136 C56.016,4.188 57.178,3.714 58.639,3.714 C60.047,3.714 61.178,4.182 62.034,5.116 C62.852,6.022 63.259,7.192 63.259,8.628 Z M61.049,8.677 C61.049,7.798 60.859,7.044 60.478,6.413 C60.031,5.651 59.391,5.27 58.562,5.27 C57.708,5.27 57.053,5.651 56.607,6.413 C56.225,7.044 56.035,7.811 56.035,8.717 C56.035,9.597 56.225,10.353 56.607,10.982 C57.068,11.744 57.711,12.125 58.544,12.125 C59.359,12.125 59.998,11.736 60.46,10.963 C60.852,10.317 61.049,9.558 61.049,8.677 Z" id="Shape"></path>
                <path d="M70.192,5.784 C69.981,5.745 69.755,5.725 69.52,5.725 C68.77,5.725 68.19,6.007 67.782,6.575 C67.428,7.075 67.25,7.707 67.25,8.47 L67.25,13.505 L65.118,13.505 L65.118,6.931 C65.118,5.826 65.097,4.818 65.056,3.91 L66.913,3.91 L66.991,5.746 L67.05,5.746 C67.276,5.115 67.63,4.606 68.116,4.225 C68.591,3.882 69.104,3.711 69.657,3.711 C69.854,3.711 70.032,3.725 70.19,3.75 L70.192,5.784 L70.192,5.784 Z" id="Path"></path>
                <path d="M79.727,8.253 C79.727,8.635 79.702,8.957 79.649,9.22 L73.253,9.22 C73.277,10.168 73.587,10.894 74.181,11.394 C74.72,11.84 75.417,12.064 76.273,12.064 C77.22,12.064 78.084,11.914 78.861,11.611 L79.195,13.09 C78.287,13.486 77.215,13.683 75.978,13.683 C74.49,13.683 73.322,13.245 72.472,12.371 C71.624,11.496 71.199,10.32 71.199,8.847 C71.199,7.401 71.594,6.196 72.385,5.235 C73.213,4.209 74.332,3.696 75.74,3.696 C77.123,3.696 78.17,4.209 78.881,5.235 C79.444,6.048 79.727,7.056 79.727,8.253 Z M77.694,7.7 C77.709,7.067 77.569,6.522 77.28,6.061 C76.911,5.467 76.343,5.171 75.582,5.171 C74.885,5.171 74.317,5.46 73.885,6.04 C73.53,6.501 73.319,7.055 73.254,7.698 L77.694,7.7 L77.694,7.7 Z" id="Shape"></path>
            </g>
            <g id="Group" transform="translate(43.224000, 6.553000)" fill="#FFFFFF">
                <path d="M5.523,6.88 L4.406,6.88 L3.795,4.959 L1.67,4.959 L1.087,6.88 L7.10542736e-15,6.88 L2.106,0.339 L3.406,0.339 L5.523,6.88 Z M3.611,4.153 L3.058,2.445 C3,2.27 2.893,1.863 2.728,1.213 L2.708,1.213 C2.64,1.494 2.543,1.902 2.397,2.445 L1.854,4.153 L3.611,4.153 Z" id="Shape"></path>
                <path d="M10.789,2.164 L9.003,6.88 L7.984,6.88 L6.256,2.164 L7.382,2.164 L8.188,4.658 C8.324,5.075 8.44,5.473 8.527,5.851 L8.556,5.851 C8.634,5.512 8.75,5.114 8.895,4.658 L9.691,2.164 L10.789,2.164 Z" id="Path"></path>
                <path d="M14.591,6.88 L14.513,6.337 L14.484,6.337 C14.164,6.774 13.698,6.987 13.106,6.987 C12.262,6.987 11.66,6.395 11.66,5.599 C11.66,4.435 12.669,3.833 14.416,3.833 L14.416,3.746 C14.416,3.125 14.086,2.814 13.436,2.814 C12.97,2.814 12.562,2.931 12.204,3.164 L11.991,2.475 C12.428,2.203 12.971,2.067 13.612,2.067 C14.844,2.067 15.466,2.717 15.466,4.018 L15.466,5.755 C15.466,6.231 15.486,6.6 15.534,6.881 L14.591,6.88 L14.591,6.88 Z M14.445,4.531 C13.28,4.531 12.698,4.813 12.698,5.482 C12.698,5.977 12.999,6.219 13.416,6.219 C13.95,6.219 14.445,5.812 14.445,5.259 L14.445,4.531 Z" id="Shape"></path>
                <path d="M17.8,1.387 C17.451,1.387 17.179,1.115 17.179,0.756 C17.179,0.397 17.46,0.135 17.82,0.135 C18.179,0.135 18.47,0.397 18.46,0.756 C18.46,1.135 18.189,1.387 17.8,1.387 Z M18.344,6.88 L17.296,6.88 L17.296,2.164 L18.344,2.164 L18.344,6.88 L18.344,6.88 Z" id="Shape"></path>
                <polygon id="Path" points="21.254 6.88 20.206 6.88 20.206 -1.77635684e-15 21.254 -1.77635684e-15"></polygon>
                <path d="M25.708,6.88 L25.63,6.337 L25.601,6.337 C25.281,6.774 24.815,6.987 24.223,6.987 C23.379,6.987 22.777,6.395 22.777,5.599 C22.777,4.435 23.786,3.833 25.533,3.833 L25.533,3.746 C25.533,3.125 25.203,2.814 24.553,2.814 C24.087,2.814 23.679,2.931 23.321,3.164 L23.107,2.474 C23.544,2.202 24.087,2.066 24.728,2.066 C25.96,2.066 26.582,2.716 26.582,4.017 L26.582,5.754 C26.582,6.23 26.603,6.599 26.649,6.88 L25.708,6.88 L25.708,6.88 Z M25.562,4.531 C24.397,4.531 23.815,4.813 23.815,5.482 C23.815,5.977 24.116,6.219 24.533,6.219 C25.067,6.219 25.562,5.812 25.562,5.259 L25.562,4.531 Z" id="Shape"></path>
                <path d="M30.828,6.987 C30.159,6.987 29.665,6.705 29.345,6.152 L29.324,6.152 L29.264,6.88 L28.371,6.88 C28.4,6.502 28.41,6.074 28.41,5.609 L28.41,-1.77635684e-15 L29.459,-1.77635684e-15 L29.459,2.854 L29.479,2.854 C29.79,2.33 30.293,2.068 30.983,2.068 C32.119,2.068 32.915,3.039 32.915,4.455 C32.915,5.919 32.031,6.987 30.828,6.987 Z M30.615,2.891 C30.012,2.891 29.46,3.415 29.46,4.143 L29.46,4.968 C29.46,5.618 29.956,6.152 30.597,6.152 C31.382,6.152 31.849,5.512 31.849,4.493 C31.848,3.542 31.362,2.891 30.615,2.891 Z" id="Shape"></path>
                <polygon id="Path" points="35.512 6.88 34.465 6.88 34.465 -1.77635684e-15 35.512 -1.77635684e-15"></polygon>
                <path d="M41.217,4.774 L38.071,4.774 C38.092,5.667 38.682,6.171 39.556,6.171 C40.022,6.171 40.449,6.093 40.827,5.948 L40.99,6.676 C40.544,6.87 40.02,6.967 39.409,6.967 C37.933,6.967 37.06,6.035 37.06,4.59 C37.06,3.144 37.954,2.057 39.291,2.057 C40.494,2.057 41.252,2.95 41.252,4.299 C41.256,4.483 41.247,4.648 41.217,4.774 Z M40.256,4.027 C40.256,3.299 39.887,2.785 39.217,2.785 C38.615,2.785 38.141,3.309 38.071,4.027 L40.256,4.027 L40.256,4.027 Z" id="Shape"></path>
                <path d="M47.569,6.987 C46.191,6.987 45.298,5.958 45.298,4.561 C45.298,3.105 46.21,2.067 47.648,2.067 C49.005,2.067 49.919,3.047 49.919,4.484 C49.919,5.958 48.977,6.987 47.569,6.987 Z M47.609,2.833 C46.852,2.833 46.367,3.541 46.367,4.531 C46.367,5.502 46.862,6.21 47.599,6.21 C48.336,6.21 48.8300015,5.453 48.8300015,4.511 C48.831,3.551 48.346,2.833 47.609,2.833 Z" id="Shape"></path>
                <path d="M55.553,6.88 L54.506,6.88 L54.506,4.172 C54.506,3.338 54.186,2.92 53.555,2.92 C52.934,2.92 52.506,3.454 52.506,4.075 L52.506,6.88 L51.459,6.88 L51.459,3.512 C51.459,3.095 51.448,2.648 51.42,2.163 L52.342,2.163 L52.391,2.891 L52.42,2.891 C52.7,2.387 53.274,2.066 53.914,2.066 C54.903,2.066 55.553,2.823 55.553,4.055 L55.553,6.88 L55.553,6.88 Z" id="Path"></path>
                <path d="M62.41,2.95 L61.257,2.95 L61.257,5.24 C61.257,5.823 61.46,6.114 61.867,6.114 C62.052,6.114 62.208,6.094 62.333,6.065 L62.362,6.861 C62.158,6.939 61.885,6.978 61.548,6.978 C60.722,6.978 60.229,6.522 60.229,5.328 L60.229,2.95 L59.541,2.95 L59.541,2.164 L60.229,2.164 L60.229,1.3 L61.257,0.989 L61.257,2.163 L62.41,2.163 L62.41,2.95 Z" id="Path"></path>
                <path d="M67.96,6.88 L66.911,6.88 L66.911,4.192 C66.911,3.348 66.591,2.921 65.96,2.921 C65.417,2.921 64.913,3.29 64.913,4.037 L64.913,6.88 L63.864,6.88 L63.864,-1.77635684e-15 L64.913,-1.77635684e-15 L64.913,2.833 L64.933,2.833 C65.263,2.319 65.739,2.066 66.35,2.066 C67.349,2.066 67.96,2.842 67.96,4.075 L67.96,6.88 Z" id="Path"></path>
                <path d="M73.315,4.774 L70.17,4.774 C70.19,5.667 70.78,6.171 71.654,6.171 C72.121,6.171 72.547,6.093 72.925,5.948 L73.089,6.676 C72.643,6.87 72.118,6.967 71.507,6.967 C70.031,6.967 69.158,6.035 69.158,4.59 C69.158,3.144 70.052,2.057 71.389,2.057 C72.592,2.057 73.35,2.95 73.35,4.299 C73.354,4.483 73.344,4.648 73.315,4.774 Z M72.354,4.027 C72.354,3.299 71.986,2.785 71.316,2.785 C70.713,2.785 70.239,3.309 70.17,4.027 L72.354,4.027 L72.354,4.027 Z" id="Shape"></path>
            </g>
        </g>
    </g>
</svg>