<?xml version="1.0" encoding="UTF-8"?>
<svg width="5436px" height="1604px" viewBox="0 0 5436 1604" version="1.1" xmlns="http://www.w3.org/2000/svg" xmlns:xlink="http://www.w3.org/1999/xlink">
    <title>Google_Play_Store_badge_EN</title>
    <defs>
        <linearGradient x1="61.0301652%" y1="4.94958549%" x2="26.4625815%" y2="71.9258683%" id="linearGradient-1">
            <stop stop-color="#00A0FF" offset="0%"></stop>
            <stop stop-color="#00A1FF" offset="0.6569999%"></stop>
            <stop stop-color="#00BEFF" offset="26.01%"></stop>
            <stop stop-color="#00D2FF" offset="51.22%"></stop>
            <stop stop-color="#00DFFF" offset="76.04%"></stop>
            <stop stop-color="#00E3FF" offset="100%"></stop>
        </linearGradient>
        <linearGradient x1="107.630451%" y1="50.0004315%" x2="-130.551706%" y2="50.0004315%" id="linearGradient-2">
            <stop stop-color="#FFE000" offset="0%"></stop>
            <stop stop-color="#FFBD00" offset="40.87%"></stop>
            <stop stop-color="#FFA500" offset="77.54%"></stop>
            <stop stop-color="#FF9C00" offset="100%"></stop>
        </linearGradient>
        <linearGradient x1="86.243474%" y1="30.90425%" x2="-50.1292379%" y2="136.019454%" id="linearGradient-3">
            <stop stop-color="#FF3A44" offset="0%"></stop>
            <stop stop-color="#C31162" offset="100%"></stop>
        </linearGradient>
        <linearGradient x1="-18.8105628%" y1="-11.8250802%" x2="42.0848536%" y2="35.086648%" id="linearGradient-4">
            <stop stop-color="#32A071" offset="0%"></stop>
            <stop stop-color="#2DA771" offset="6.85%"></stop>
            <stop stop-color="#15CF74" offset="47.62%"></stop>
            <stop stop-color="#06E775" offset="80.09%"></stop>
            <stop stop-color="#00F076" offset="100%"></stop>
        </linearGradient>
    </defs>
    <g id="Page-1" stroke="none" stroke-width="1" fill="none" fill-rule="evenodd">
        <g id="Google_Play_Store_badge_EN">
            <path d="M5234.4,1604 L201.4,1604 C90.4,1604 0,1513.6 0,1403.5 L0,200.5 C0,90 90.4,0 201.4,0 L5234.4,0 C5345.3,0 5435.8,90 5435.8,200.5 L5435.8,1403.5 C5435.8,1513.6 5345.3,1604 5234.4,1604 Z" id="Path" fill="#000000" fill-rule="nonzero"></path>
            <path d="M5234.4,32.1 C5327.5,32.1 5403.7,107.8 5403.7,200.5 L5403.7,1403.5 C5403.7,1496.2 5328,1571.9 5234.4,1571.9 L201.4,1571.9 C108.3,1571.9 32.1,1496.2 32.1,1403.5 L32.1,200.5 C32.1,107.8 107.8,32.1 201.4,32.1 C201.4,32.1 5234.4,32.1 5234.4,32.1 Z M5234.4,0 L201.4,0 C90.4,0 0,90.4 0,200.5 L0,1403.5 C0,1514 90.4,1604 201.4,1604 L5234.4,1604 C5345.3,1604 5435.8,1514 5435.8,1403.5 L5435.8,200.5 C5435.8,90.4 5345.3,0 5234.4,0 Z" id="Shape" fill="#A6A6A6"></path>
            <path d="M2863.6,530.6 C2827.3,530.6 2796.7,517.9 2772.5,492.9 C2748.5,468.6 2735.1,435.1 2735.7,400.9 C2735.7,364.4 2748.1,333.5 2772.5,309 C2796.6,284 2827.2,271.3 2863.5,271.3 C2899.4,271.3 2930,284 2954.6,309 C2979,334.3 2991.4,365.2 2991.4,400.9 C2991,437.5 2978.6,468.4 2954.6,492.8 C2930.5,518 2899.9,530.6 2863.6,530.6 Z M1783.5,530.6 C1748,530.6 1717.2,518.1 1692,493.4 C1667,468.8 1654.3,437.7 1654.3,401 C1654.3,364.3 1667,333.2 1692,308.6 C1716.7,283.9 1747.5,271.4 1783.5,271.4 C1801.1,271.4 1818.2,274.9 1834.6,282 C1850.7,288.9 1863.8,298.3 1873.5,309.8 L1875.9,312.7 L1848.8,339.3 L1846,336 C1830.7,317.8 1810.2,308.9 1783.1,308.9 C1758.9,308.9 1737.8,317.5 1720.4,334.5 C1702.9,351.6 1694,374 1694,401.1 C1694,428.2 1702.9,450.6 1720.4,467.7 C1737.8,484.7 1758.9,493.3 1783.1,493.3 C1808.9,493.3 1830.6,484.7 1847.5,467.7 C1857.5,457.7 1863.7,443.7 1865.9,426 L1779,426 L1779,388.6 L1903.2,388.6 L1903.7,392 C1904.6,398.3 1905.5,404.8 1905.5,410.8 C1905.5,445.3 1895.1,473.2 1874.5,493.8 C1851.1,518.2 1820.5,530.6 1783.5,530.6 Z M3219.6,525.3 L3181.3,525.3 L3064,337.6 L3065,371.4 L3065,525.2 L3026.7,525.2 L3026.7,276.7 L3070.4,276.7 L3071.6,278.6 L3181.9,455.4 L3180.9,421.7 L3180.9,276.7 L3219.6,276.7 L3219.6,525.3 L3219.6,525.3 Z M2575.8,525.3 L2537,525.3 L2537,314.1 L2469.7,314.1 L2469.7,276.7 L2643,276.7 L2643,314.1 L2575.7,314.1 L2575.7,525.3 L2575.8,525.3 Z M2438.1,525.3 L2399.4,525.3 L2399.4,276.7 L2438.1,276.7 L2438.1,525.3 Z M2220.6,525.3 L2181.9,525.3 L2181.9,314.1 L2114.6,314.1 L2114.6,276.7 L2287.9,276.7 L2287.9,314.1 L2220.6,314.1 L2220.6,525.3 Z M2090.1,524.9 L1941.7,524.9 L1941.7,276.7 L2090.1,276.7 L2090.1,314.1 L1980.5,314.1 L1980.5,382.3 L2079.4,382.3 L2079.4,419.3 L1980.5,419.3 L1980.5,487.5 L2090.1,487.5 L2090.1,524.9 Z M2800.9,467.2 C2818.2,484.5 2839.2,493.2 2863.6,493.2 C2888.7,493.2 2909.2,484.7 2926.3,467.2 C2943.3,450.2 2951.9,427.9 2951.9,401 C2951.9,374.1 2943.3,351.7 2926.4,334.8 C2909.1,317.5 2888,308.8 2863.7,308.8 C2838.6,308.8 2818.1,317.3 2801.1,334.8 C2784.1,351.8 2775.5,374.1 2775.5,401 C2775.5,427.9 2784,450.3 2800.9,467.2 L2800.9,467.2 Z" id="Shape" fill="#FFFFFF" fill-rule="nonzero"></path>
            <path d="M2732.1,872.4 C2637.6,872.4 2561,944.1 2561,1043 C2561,1141 2638.1,1213.6 2732.1,1213.6 C2826.6,1213.6 2903.2,1141.4 2903.2,1043 C2903.2,944.1 2826.6,872.4 2732.1,872.4 Z M2732.1,1146 C2680.4,1146 2635.9,1103.2 2635.9,1042.6 C2635.9,981.1 2680.5,939.2 2732.1,939.2 C2783.8,939.2 2828.30017,981.1 2828.30017,1042.6 C2828.4,1103.6 2783.8,1146 2732.1,1146 Z M2358.8,872.4 C2264.3,872.4 2187.7,944.1 2187.7,1043 C2187.7,1141 2264.8,1213.6 2358.8,1213.6 C2453.3,1213.6 2529.9,1141.4 2529.9,1043 C2529.9,944.1 2453.2,872.4 2358.8,872.4 Z M2358.8,1146 C2307.1,1146 2262.6,1103.2 2262.6,1042.6 C2262.6,981.1 2307.2,939.2 2358.8,939.2 C2410.5,939.2 2455,981.1 2455,1042.6 C2455,1103.6 2410.5,1146 2358.8,1146 Z M1914.6,924.5 L1914.6,996.7 L2087.9,996.7 C2082.6,1037.2 2069.2,1067.1 2048.7,1087.6 C2023.3,1113 1984.1,1140.6 1915,1140.6 C1808.5,1140.6 1725.2,1054.6 1725.2,948.1 C1725.2,841.6 1808.5,755.6 1915,755.6 C1972.5,755.6 2014.4,778.3 2045.5,807.3 L2096.7,756.1 C2053.5,714.7 1996,683 1915.4,683 C1769.3,683 1646.7,802 1646.7,947.7 C1646.7,1093.8 1769.2,1212.4 1915.4,1212.4 C1994.3,1212.4 2053.5,1186.6 2100.3,1138 C2148,1090.3 2163.1,1023 2163.1,968.7 C2163.1,951.8 2161.8,936.6 2159.1,923.7 L1914.5,923.7 C1914.6,923.6 1914.6,924.5 1914.6,924.5 Z M3731.5,980.7 C3717.2,942.4 3674,872 3585.4,872 C3497.6,872 3424.6,941.1 3424.6,1042.6 C3424.6,1138.4 3496.8,1213.2 3593.9,1213.2 C3671.9,1213.2 3717.3,1165.5 3736,1137.5 L3678.1,1098.7 C3658.9,1127.2 3632.2,1145.9 3594.3,1145.9 C3556,1145.9 3529.2,1128.5 3511.4,1094.2 L3739.5,999.7 C3739.5,999.8 3731.5,980.7 3731.5,980.7 Z M3498.9,1037.7 C3497.1,971.8 3550.1,938.3 3588,938.3 C3617.9,938.3 3642.8,953 3651.3,974.4 L3498.9,1037.7 Z M3313.6,1203 L3388.5,1203 L3388.5,701.8 L3313.6,701.8 L3313.6,1203 Z M3190.6,910.3 L3187.9,910.3 C3171,890.2 3138.9,872 3097.9,872 C3012.8,872 2934.4,946.9 2934.4,1043.1 C2934.4,1138.9 3012.4,1212.9 3097.9,1212.9 C3138.4,1212.9 3171,1194.6 3187.9,1174.1 L3190.6,1174.1 L3190.6,1198.6 C3190.6,1263.7 3155.8,1298.8 3099.7,1298.8 C3053.8,1298.8 3025.3,1265.8 3013.7,1238.2 L2948.6,1265.4 C2967.3,1310.4 3017.2,1366.1 3099.6,1366.1 C3187.4,1366.1 3261.8,1314.4 3261.8,1188.3 L3261.8,882.2 L3191,882.2 L3191,910.3 C3191.1,910.3 3190.6,910.3 3190.6,910.3 Z M3104.6,1146 C3052.9,1146 3009.7,1102.8 3009.7,1043.1 C3009.7,982.9 3052.9,939.3 3104.6,939.3 C3155.8,939.3 3195.5,983.4 3195.5,1043.1 C3196,1102.8 3155.9,1146 3104.6,1146 Z M4082.2,701.8 L3903.1,701.8 L3903.1,1203 L3978,1203 L3978,1013.2 L4082.3,1013.2 C4165.2,1013.2 4246.7,953.1 4246.7,857.7 C4246.7,762.3 4165.5,701.8 4082.2,701.8 Z M4084.4,943.2 L3977.9,943.2 L3977.9,771.2 L4084.4,771.2 C4140.5,771.2 4172.2,817.5 4172.2,857.2 C4172.2,896.5 4140.1,943.2 4084.4,943.2 Z M4546.9,871.5 C4492.5,871.5 4436.4,895.6 4413.2,948.1 L4479.6,975.7 C4493.9,948.1 4520.1,938.7 4547.8,938.7 C4586.6,938.7 4625.8,961.9 4626.7,1003.3 L4626.7,1008.6 C4613.3,1001 4583.9,989.4 4548.7,989.4 C4477,989.4 4404.3,1028.6 4404.3,1102.1 C4404.3,1169.4 4463.1,1212.6 4528.6,1212.6 C4578.9,1212.6 4606.6,1189.9 4623.9,1163.6 L4626.6,1163.6 L4626.6,1202.4 L4698.8,1202.4 L4698.8,1010.4 C4698.8,921 4632.4,871.5 4546.9,871.5 Z M4537.5,1146 C4513,1146 4478.7,1134 4478.7,1103.2 C4478.7,1064.4 4521.5,1049.7 4558,1049.7 C4591,1049.7 4606.6,1056.8 4626.2,1066.6 C4620.8,1111.6 4582.8,1145.6 4537.5,1146 Z M4962.2,882.2 L4876.2,1099.6 L4873.5,1099.6 L4784.4,882.2 L4703.8,882.2 L4837.5,1186.1 L4761.3,1355 L4839.3,1355 L5045,882.2 C5045,882.2 4962.2,882.2 4962.2,882.2 Z M4288,1203 L4362.9,1203 L4362.9,701.8 L4288,701.8 L4288,1203 Z" id="Shape" fill="#FFFFFF"></path>
            <path d="M418.4,302.1 C406.8,314.6 400.1,333.7 400.1,358.7 L400.1,1245.4 C400.1,1270.4 406.8,1289.5 418.8,1301.5 L421.9,1304.2 L918.7,807.4 L918.7,796.3 L421.5,299.4 C421.5,299.4 418.4,302.1 418.4,302.1 Z" id="Path" fill="url(#linearGradient-1)"></path>
            <path d="M1084,973.5 L918.3,807.8 L918.3,796.2 L1084,630.5 L1087.6,632.7 L1283.6,744.1 C1339.7,775.7 1339.7,827.9 1283.6,859.9 L1087.6,971.3 C1087.6,971.3 1084,973.5 1084,973.5 Z" id="Path" fill="url(#linearGradient-2)"></path>
            <path d="M1087.6,971.3 L918.3,802 L418.4,1301.9 C436.7,1321.5 467.4,1323.7 501.7,1304.6 L1087.6,971.3" id="Path" fill="url(#linearGradient-3)"></path>
            <path d="M1087.6,632.7 L501.7,299.9 C467.4,280.3 436.6,283 418.4,302.6 L918.3,802 L1087.6,632.7 Z" id="Path" fill="url(#linearGradient-4)"></path>
            <path d="M1084,967.7 L502.1,1298.3 C469.6,1317 440.6,1315.7 421.9,1298.7 L418.8,1301.8 L421.9,1304.5 C440.6,1321.4 469.6,1322.8 502.1,1304.1 L1088,971.3 C1088,971.3 1084,967.7 1084,967.7 Z" id="Path" fill="#000000" fill-rule="nonzero" opacity="0.2"></path>
            <path d="M1283.6,854.1 L1083.5,967.7 L1087.1,971.3 L1283.1,859.9 C1311.2,843.9 1325,822.9 1325,802 C1323.3,821.2 1309,839.4 1283.6,854.1 Z" id="Path" fill="#000000" fill-rule="nonzero" opacity="0.12"></path>
            <path d="M501.7,305.7 L1283.6,749.9 C1309,764.2 1323.3,782.9 1325.5,802 C1325.5,781.1 1311.7,760.1 1283.6,744.1 L501.7,299.9 C445.6,267.8 400.1,294.6 400.1,358.7 L400.1,364.5 C400.1,300.3 445.6,274 501.7,305.7 Z" id="Path" fill="#FFFFFF" opacity="0.25"></path>
        </g>
    </g>
</svg>