<?xml version="1.0" encoding="UTF-8"?>
<svg width="261px" height="369px" viewBox="0 0 261 369" version="1.1" xmlns="http://www.w3.org/2000/svg" xmlns:xlink="http://www.w3.org/1999/xlink">
    <title>pin</title>
    <g id="Page-1" stroke="none" stroke-width="1" fill="none" fill-rule="evenodd">
        <g id="pin" transform="translate(0.277000, 0.000000)" fill="#000000" fill-rule="nonzero">
            <path d="M130,0 C58.317,0 0,58.317 0,130 C0,217.26 119.188,359.855 124.263,365.883 C125.68,367.568 127.767,368.543 129.968,368.553 C129.979,368.553 129.989,368.553 130,368.553 C132.189,368.553 134.271,367.596 135.696,365.932 C140.771,360.006 260,219.767 260,130 C260,58.317 201.683,0 130,0 Z M130.045,349.251 C106.108,319.48 15,201.453 15,130 C15,66.589 66.589,15 130,15 C193.411,15 245,66.589 245,130 C245,203.49 154.05,319.829 130.045,349.251 Z" id="Shape"></path>
            <path d="M130,72.293 C99.524,72.293 74.731,97.086 74.731,127.562 C74.731,158.038 99.524,182.831 130,182.831 C160.476,182.831 185.269,158.038 185.269,127.562 C185.269,97.086 160.476,72.293 130,72.293 Z M130,167.83 C107.796,167.83 89.731,149.766 89.731,127.561 C89.731,105.356 107.795,87.292 130,87.292 C152.205,87.292 170.269,105.356 170.269,127.561 C170.269,149.766 152.203,167.83 130,167.83 Z" id="Shape"></path>
        </g>
    </g>
</svg>