<?xml version="1.0" encoding="UTF-8"?>
<svg width="716px" height="284px" viewBox="0 0 716 284" version="1.1" xmlns="http://www.w3.org/2000/svg" xmlns:xlink="http://www.w3.org/1999/xlink">
    <title>Logo</title>
    <g id="Page-1" stroke="none" stroke-width="1" fill="none" fill-rule="evenodd">
        <g id="Logo" transform="translate(-0.000117, 0.000000)" fill-rule="nonzero">
            <path d="M620.923117,0 C568.742117,0 526.436117,42.303 526.436117,94.492 C526.436117,146.673 568.743117,188.971 620.923117,188.971 C673.109117,188.971 715.415117,146.672 715.411117,94.492 C715.411117,42.307 673.105117,0 620.923117,0 Z M620.923117,144.441 C593.334117,144.441 570.970117,122.073 570.970117,94.483 C570.966117,66.894 593.334117,44.529 620.923117,44.529 C648.513117,44.529 670.881117,66.897 670.881117,94.487 C670.881117,122.077 648.513117,144.441 620.923117,144.441 Z" id="Shape" fill="#227B82"></path>
            <path d="M240.782117,143.475 C240.782117,209.966 186.882117,263.864 120.390117,263.864 C53.9021174,263.864 0.00511735741,209.967 0.00511735741,143.475 C0.00511735741,76.991 53.9021174,23.094 120.390117,23.094 C186.882117,23.094 240.782117,76.991 240.782117,143.475 Z" id="Path" fill="#227B82"></path>
            <g id="Group" transform="translate(0.000000, 23.083157)">
                <path d="M125.366117,157.561843 L125.499117,158.342843 C126.724117,165.570843 132.406117,169.333843 141.139117,168.612843 L151.412117,167.310843 L235.089117,157.110843 C240.197117,141.018843 242.067117,123.574843 239.877117,105.742843 C231.800117,39.891843 171.959117,-7.01615697 106.185117,0.863843032 L124.004117,146.650843 L125.366117,157.561843 Z" id="Path" fill="#EFB31D"></path>
                <path d="M133.448117,226.574843 C93.3171174,228.197843 74.6391174,211.591843 69.4641174,169.646843 L51.3121174,21.793843 C16.1001174,46.478843 -4.71088264,89.393843 0.912117357,135.079843 C8.98411736,201.039843 69.0881174,247.959843 135.054117,239.886843 C154.513117,237.500843 172.341117,230.595843 187.532117,220.322843 L143.011117,225.801843 C140.098117,226.127843 136.802117,226.574843 133.448117,226.574843" id="Path" fill="#BFD042"></path>
            </g>
            <path d="M577.284117,221.444 L576.788117,219.107 L562.867117,111.016 C561.427117,60.09 519.696117,19.249 468.421117,19.249 C416.240117,19.249 373.933117,61.552 373.933117,113.737 C373.933117,165.923 416.241117,208.221 468.421117,208.221 C489.776117,208.221 509.474117,201.134 525.298117,189.189 L525.296117,189.193 L528.257117,213.165 L529.333117,222.089 L529.401117,222.701 C529.837117,228.668 526.118117,232.777 519.003117,233.901 L510.704117,234.957 L442.564117,243.333 C454.147117,262.083 471.893117,276.401 492.553117,283.951 L536.528117,278.246 C568.597117,271.599 583.657117,256.757 577.284117,221.444 Z M468.360117,163.175 C440.767117,163.175 418.403117,140.807 418.403117,113.218 C418.403117,85.629 440.771117,63.265 468.360117,63.265 C495.950117,63.261 518.318117,85.629 518.314117,113.218 C518.314117,140.807 495.950117,163.175 468.360117,163.175 Z" id="Shape" fill="#227B82"></path>
            <path d="M315.477117,38.942 C263.293117,38.942 220.989117,81.249 220.989117,133.434 C220.989117,185.616 263.293117,227.918 315.477117,227.922 C367.660117,227.918 409.967117,185.615 409.967117,133.434 C409.967117,81.249 367.660117,38.942 315.477117,38.942 Z M314.995117,182.006 C287.406117,182.006 265.039117,159.638 265.039117,132.049 C265.039117,104.459 287.407117,82.095 314.995117,82.095 C342.584117,82.095 364.949117,104.459 364.949117,132.049 C364.949117,159.638 342.584117,182.006 314.995117,182.006 Z" id="Shape" fill="#227B82"></path>
        </g>
    </g>
</svg>
