<?xml version="1.0" encoding="UTF-8"?>
<svg width="512px" height="512px" viewBox="0 0 512 512" version="1.1" xmlns="http://www.w3.org/2000/svg" xmlns:xlink="http://www.w3.org/1999/xlink">
    <title>whatsapp</title>
    <g id="Page-1" stroke="none" stroke-width="1" fill="none" fill-rule="evenodd">
        <g id="whatsapp" transform="translate(-0.000193, 0.000000)" fill="#8DC63F" fill-rule="nonzero">
            <path d="M378.853193,294.202 C377.856193,293.723 340.529193,275.343 333.897193,272.956 C331.189193,271.984 328.288193,271.034 325.203193,271.034 C320.163193,271.034 315.929193,273.546 312.631193,278.48 C308.902193,284.022 297.615193,297.216 294.128193,301.158 C293.672193,301.678 293.051193,302.3 292.678193,302.3 C292.344193,302.3 286.567193,299.921 284.818193,299.162 C244.777193,281.769 214.385193,239.943 210.217193,232.89 C209.622193,231.876 209.597193,231.416 209.592193,231.416 C209.738193,230.879 211.085193,229.529 211.780193,228.833 C213.813193,226.822 216.016193,224.17 218.147193,221.605 C219.156193,220.39 220.167193,219.173 221.159193,218.026 C224.251193,214.429 225.627193,211.636 227.223193,208.401 L228.059193,206.72 C231.956193,198.978 228.628193,192.446 227.552193,190.336 C226.669193,188.571 210.909193,150.533 209.233193,146.537 C205.203193,136.894 199.879193,132.404 192.480193,132.404 C191.793193,132.404 192.480193,132.404 189.601193,132.525 C186.095193,132.673 167.003193,135.186 158.562193,140.508 C149.610193,146.152 134.466193,164.141 134.466193,195.779 C134.466193,224.253 152.536193,251.138 160.294193,261.363 C160.487193,261.621 160.841193,262.144 161.355193,262.896 C191.066193,306.286 228.105193,338.443 265.652193,353.442 C301.800193,367.881 318.917193,369.55 328.648193,369.55 C328.650193,369.55 328.650193,369.55 328.650193,369.55 C332.739193,369.55 336.012193,369.229 338.900193,368.945 L340.732193,368.77 C353.219193,367.663 380.661193,353.443 386.903193,336.097 C391.820193,322.434 393.117193,307.506 389.845193,302.089 C387.604193,298.403 383.742193,296.549 378.853193,294.202 Z" id="Path"></path>
            <path d="M260.545193,0 C121.879193,0 9.06619325,111.965 9.06619325,249.588 C9.06619325,294.1 20.9781933,337.672 43.5451933,375.806 L0.35219325,503.216 C-0.45280675,505.591 0.14619325,508.218 1.90319325,510.007 C3.17219325,511.302 4.89219325,512 6.64919325,512 C7.32219325,512 8.00019325,511.899 8.66219325,511.687 L141.516193,469.47 C177.871193,488.894 218.961193,499.148 260.546193,499.148 C399.199193,499.15 512.000193,387.197 512.000193,249.588 C512.000193,111.965 399.199193,0 260.545193,0 Z M260.545193,447.159 C221.415193,447.159 183.516193,435.86 150.937193,414.482 C149.842193,413.762 148.570193,413.393 147.290193,413.393 C146.613193,413.393 145.935193,413.496 145.275193,413.706 L78.7231933,434.861 L100.207193,371.478 C100.902193,369.427 100.554193,367.164 99.2741933,365.415 C74.4651933,331.517 61.3511933,291.466 61.3511933,249.588 C61.3511933,140.633 150.708193,51.991 260.542193,51.991 C370.363193,51.991 459.710193,140.633 459.710193,249.588 C459.710193,358.53 370.367193,447.159 260.545193,447.159 Z" id="Shape"></path>
        </g>
    </g>
</svg>