<?xml version="1.0" encoding="UTF-8"?>
<svg width="473px" height="473px" viewBox="0 0 473 473" version="1.1" xmlns="http://www.w3.org/2000/svg" xmlns:xlink="http://www.w3.org/1999/xlink">
    <title>zoom-5</title>
    <g id="Page-1" stroke="none" stroke-width="1" fill="none" fill-rule="evenodd">
        <g id="zoom-5" fill-rule="nonzero">
            <circle id="Oval" fill="#4A8CFF" cx="236.2" cy="236.2" r="236.2"></circle>
            <path d="M84.65,162.25 L84.65,273.25 C84.7712306,298.319208 105.180697,318.549644 130.25,318.450367 L292.05,318.450367 C296.604132,318.472174 300.316973,314.804067 300.35,310.25 L300.35,199.25 C300.228769,174.180792 279.819303,153.950356 254.75,154.049507 L93,154.049507 C90.8041217,154.026016 88.6890807,154.877434 87.1222582,156.41611 C85.5554357,157.954786 84.6658207,160.054048 84.65,162.25 L84.65,162.25 Z M310.65,205.55 L377.45,156.75 C383.25,151.94 387.75,153.15 387.75,161.85 L387.75,310.65 C387.75,320.55 382.25,319.35 377.45,315.74 L310.65,267.05 L310.65,205.55 Z" id="Shape" fill="#FFFFFF"></path>
        </g>
    </g>
</svg>