<?xml version="1.0" encoding="UTF-8"?><!DOCTYPE svg PUBLIC "-//W3C//DTD SVG 1.1//EN" "http://www.w3.org/Graphics/SVG/1.1/DTD/svg11.dtd"><svg xmlns="http://www.w3.org/2000/svg" xmlns:xlink="http://www.w3.org/1999/xlink"><defs/><symbol id="example" viewBox="0 0 96 96">
    <title>example</title>
    <g id="Page-1" stroke="none" stroke-width="1" fill="none" fill-rule="evenodd">
        <g id="example" transform="translate(0.833333, 7.194311)" fill-rule="nonzero">
            <path d="M0,40.8056889 L94.3333333,40.8056889 L94.3333333,74.1390223 C94.3333333,81.9723556 88.3333333,87.9723556 80.5,87.9723556 L13.8333333,87.9723556 C6,87.9723556 0,81.9723556 0,74.1390223 L0,40.8056889 Z" id="base" fill="#000000"/>
            <g id="Group" transform="translate(6.360978, 0.000000)" fill="#FFB13B" stroke="#000000" stroke-width="12.6695333">
                <g id="svgstar">
                    <path d="M12.7561223,35.5219223 C9.83797997,32.6037861 5.10674193,32.6037894 2.18860368,35.5219296 C-0.729534561,38.4400699 -0.729534561,43.171308 2.18860368,46.0894482 C5.10674193,49.0075885 9.83797997,49.0075918 12.7561223,46.0894556 L68.8552556,46.0894556 C71.7733979,49.0075918 76.504636,49.0075885 79.4227742,46.0894482 C82.3409125,43.171308 82.3409125,38.4400699 79.4227742,35.5219296 C76.504636,32.6037894 71.7733979,32.6037861 68.8552556,35.5219223 L12.7561223,35.5219223 Z" id="svgbar"/>
                    <g id="svgbar-link" transform="translate(40.805689, 40.805689) rotate(45.000000) translate(-40.805689, -40.805689) translate(0.000000, 33.333322)">
                        <path d="M12.7561223,2.1886 C9.83797997,-0.72953621 5.10674193,-0.729532912 2.18860368,2.18860737 C-0.729534561,5.10674765 -0.729534561,9.83798569 2.18860368,12.756126 C5.10674193,15.6742662 9.83797997,15.6742695 12.7561223,12.7561333 L68.8552556,12.7561333 C71.7733979,15.6742695 76.504636,15.6742662 79.4227742,12.756126 C82.3409125,9.83798569 82.3409125,5.10674765 79.4227742,2.18860737 C76.504636,-0.729532912 71.7733979,-0.72953621 68.8552556,2.1886 L12.7561223,2.1886 Z" id="svgbar"/>
                    </g>
                    <g id="svgbar-link" transform="translate(40.805689, 40.805689) rotate(90.000000) translate(-40.805689, -40.805689) translate(0.000000, 33.333322)">
                        <path d="M12.7561223,2.1886 C9.83797997,-0.72953621 5.10674193,-0.729532912 2.18860368,2.18860737 C-0.729534561,5.10674765 -0.729534561,9.83798569 2.18860368,12.756126 C5.10674193,15.6742662 9.83797997,15.6742695 12.7561223,12.7561333 L68.8552556,12.7561333 C71.7733979,15.6742695 76.504636,15.6742662 79.4227742,12.756126 C82.3409125,9.83798569 82.3409125,5.10674765 79.4227742,2.18860737 C76.504636,-0.729532912 71.7733979,-0.72953621 68.8552556,2.1886 L12.7561223,2.1886 Z" id="svgbar"/>
                    </g>
                    <g id="svgbar-link" transform="translate(40.805689, 40.805689) rotate(135.000000) translate(-40.805689, -40.805689) translate(0.000000, 33.333322)">
                        <path d="M12.7561223,2.1886 C9.83797997,-0.72953621 5.10674193,-0.729532912 2.18860368,2.18860737 C-0.729534561,5.10674765 -0.729534561,9.83798569 2.18860368,12.756126 C5.10674193,15.6742662 9.83797997,15.6742695 12.7561223,12.7561333 L68.8552556,12.7561333 C71.7733979,15.6742695 76.504636,15.6742662 79.4227742,12.756126 C82.3409125,9.83798569 82.3409125,5.10674765 79.4227742,2.18860737 C76.504636,-0.729532912 71.7733979,-0.72953621 68.8552556,2.1886 L12.7561223,2.1886 Z" id="svgbar"/>
                    </g>
                </g>
            </g>
            <g id="svgstar" transform="translate(6.360978, 0.000000)" fill="#FFB13B">
                <path d="M12.7561223,35.5219223 C9.83797997,32.6037861 5.10674193,32.6037894 2.18860368,35.5219296 C-0.729534561,38.4400699 -0.729534561,43.171308 2.18860368,46.0894482 C5.10674193,49.0075885 9.83797997,49.0075918 12.7561223,46.0894556 L68.8552556,46.0894556 C71.7733979,49.0075918 76.504636,49.0075885 79.4227742,46.0894482 C82.3409125,43.171308 82.3409125,38.4400699 79.4227742,35.5219296 C76.504636,32.6037894 71.7733979,32.6037861 68.8552556,35.5219223 L12.7561223,35.5219223 Z" id="svgbar"/>
                <g id="svgbar-link" transform="translate(40.805689, 40.805689) rotate(45.000000) translate(-40.805689, -40.805689) translate(0.000000, 33.333322)">
                    <path d="M12.7561223,2.1886 C9.83797997,-0.72953621 5.10674193,-0.729532912 2.18860368,2.18860737 C-0.729534561,5.10674765 -0.729534561,9.83798569 2.18860368,12.756126 C5.10674193,15.6742662 9.83797997,15.6742695 12.7561223,12.7561333 L68.8552556,12.7561333 C71.7733979,15.6742695 76.504636,15.6742662 79.4227742,12.756126 C82.3409125,9.83798569 82.3409125,5.10674765 79.4227742,2.18860737 C76.504636,-0.729532912 71.7733979,-0.72953621 68.8552556,2.1886 L12.7561223,2.1886 Z" id="svgbar"/>
                </g>
                <g id="svgbar-link" transform="translate(40.805689, 40.805689) rotate(90.000000) translate(-40.805689, -40.805689) translate(0.000000, 33.333322)">
                    <path d="M12.7561223,2.1886 C9.83797997,-0.72953621 5.10674193,-0.729532912 2.18860368,2.18860737 C-0.729534561,5.10674765 -0.729534561,9.83798569 2.18860368,12.756126 C5.10674193,15.6742662 9.83797997,15.6742695 12.7561223,12.7561333 L68.8552556,12.7561333 C71.7733979,15.6742695 76.504636,15.6742662 79.4227742,12.756126 C82.3409125,9.83798569 82.3409125,5.10674765 79.4227742,2.18860737 C76.504636,-0.729532912 71.7733979,-0.72953621 68.8552556,2.1886 L12.7561223,2.1886 Z" id="svgbar"/>
                </g>
                <g id="svgbar-link" transform="translate(40.805689, 40.805689) rotate(135.000000) translate(-40.805689, -40.805689) translate(0.000000, 33.333322)">
                    <path d="M12.7561223,2.1886 C9.83797997,-0.72953621 5.10674193,-0.729532912 2.18860368,2.18860737 C-0.729534561,5.10674765 -0.729534561,9.83798569 2.18860368,12.756126 C5.10674193,15.6742662 9.83797997,15.6742695 12.7561223,12.7561333 L68.8552556,12.7561333 C71.7733979,15.6742695 76.504636,15.6742662 79.4227742,12.756126 C82.3409125,9.83798569 82.3409125,5.10674765 79.4227742,2.18860737 C76.504636,-0.729532912 71.7733979,-0.72953621 68.8552556,2.1886 L12.7561223,2.1886 Z" id="svgbar"/>
                </g>
            </g>
            <g id="base-link" opacity="0.85" transform="translate(0.000000, 40.805689)" fill="#000000">
                <path d="M0,0 L94.3333333,0 L94.3333333,33.3333333 C94.3333333,41.1666667 88.3333333,47.1666667 80.5,47.1666667 L13.8333333,47.1666667 C6,47.1666667 0,41.1666667 0,33.3333333 L0,0 Z" id="base"/>
            </g>
            <g id="SVG" transform="translate(10.572667, 43.488356)" fill="#FFFFFF">
                <path d="M3.582,20.8633333 C1.36933333,18.6513333 -1.77635684e-15,15.5966667 -1.77635684e-15,12.2226667 C-1.77635684e-15,5.472 5.47533333,0 12.2226667,0 C18.9733333,0 24.4486667,5.472 24.4486667,12.2226667 L17.2886667,12.2226667 C17.2886667,9.42666667 15.0193333,7.16066667 12.2226667,7.16066667 C9.42666667,7.16066667 7.16066667,9.42666667 7.16066667,12.2226667 C7.16066667,13.6193333 7.728,14.8846667 8.64066667,15.798 L8.644,15.798 C9.56066667,16.718 10.324,16.984 12.2226667,17.2853333 L12.2226667,17.2853333 C15.6,17.6366667 18.6546667,18.6546667 20.8666667,20.8666667 L20.8666667,20.8666667 C23.0793333,23.0793333 24.4486667,26.134 24.4486667,29.508 C24.4486667,36.2586667 18.9733333,41.734 12.2226667,41.734 C5.47533333,41.734 -1.77635684e-15,36.2586667 -1.77635684e-15,29.508 L7.16066667,29.508 C7.16066667,32.304 9.42666667,34.5733333 12.2226667,34.5733333 C15.0193333,34.5733333 17.2886667,32.304 17.2886667,29.508 C17.2886667,28.1113333 16.7213333,26.8493333 15.808,25.9326667 L15.8046667,25.9326667 C14.888,25.016 13.5726667,24.7 12.2226667,24.4486667 L12.2226667,24.4453333 C8.94933333,23.9433333 5.794,23.076 3.582,20.8633333 L3.582,20.8633333 L3.582,20.8633333 Z" id="S"/>
                <polygon id="V" points="48.8953333 0 40.2486667 41.734 33.0886667 41.734 24.4486667 0 31.6086667 0 36.6753333 24.442 41.7353333 0"/>
                <path d="M61.122,17.2853333 L73.3446667,17.2853333 L73.3446667,29.508 L73.348,29.508 C73.348,36.2593333 67.8726667,41.7346667 61.122,41.7346667 C54.3706667,41.7346667 48.8993333,36.2593333 48.8993333,29.508 L48.8993333,29.508 L48.8993333,12.2233333 L48.896,12.2233333 C48.896,5.47266667 54.3706667,0.000666666667 61.122,0.000666666667 C67.8693333,0.000666666667 73.3446667,5.47266667 73.3446667,12.2233333 L66.184,12.2233333 C66.184,9.43 63.9146667,7.16066667 61.122,7.16066667 C58.3253333,7.16066667 56.0593333,9.43 56.0593333,12.2233333 L56.0593333,29.508 L56.0593333,29.508 C56.0593333,32.3046667 58.3253333,34.5706667 61.122,34.5706667 C63.9146667,34.5706667 66.1806667,32.3046667 66.184,29.5113333 L66.184,29.508 L66.184,24.4493333 L61.122,24.4493333 L61.122,17.2853333 L61.122,17.2853333 Z" id="G"/>
            </g>
        </g>
    </g>
</symbol><symbol id="xing" viewBox="0 0 24 24">
  <path d="M8.68042746 9.83361709L6.31603864 5.64892894C6.13600904 5.10483947 5.77194917 4.9208092 5.4078893 4.9208092L1.95132089 4.9208092C1.77129128 4.9208092 1.58726102 5.10483947 1.58726102 5.10483947 1.40723141 5.28486907 1.40723141 5.46889934 1.58726102 5.6529296L3.77162023 9.83761775.135022204 16.3826941C-.0450074013 16.5627237-.0450074013 16.7507546.135022204 16.9347848.315051809 17.1148145.499082072 17.1228158.679111677 17.1228158L4.13568009 17.1228158C4.49973996 17.1228158 4.86379983 16.7547552 5.04382943 16.3906954 5.77194917 15.2985158 8.68042746 9.83361709 8.68042746 9.83361709zM20.5423781.196032237C20.3423452.0120019737 20.1423123 0 19.958282 0L16.5017136 0C16.1376538 0 15.7735939.372061184 15.5935643.732120394 10.6807564 9.64558617 8.53640377 14.1943342 8.35237351 14.3783645L12.8651156 23.4638585C13.0451452 23.8279184 13.4092051 24 13.7732649 24L17.2298334 24C17.5938932 24 17.5938932 24.007948 17.7739228 23.8279184 17.9539524 23.6478888 17.9539524 23.4678592 17.7739228 23.2878296L13.2851847 14.3783645 20.5423781.924151973C20.5423781.74012171 20.5423781.560092105 20.5423781.196032237z" transform="translate(1.73)"/>
</symbol><symbol id="youtube" viewBox="0 0 24 24">
  <path d="M23.996006,3.58662007 C23.996006,1.60559161 22.3904144,5.67582814e-16 20.4093859,5.67582814e-16 L3.58662007,5.67582814e-16 C1.60559161,5.67582814e-16 -5.67582814e-16,1.60559161 -5.67582814e-16,3.58662007 L-5.67582814e-16,13.2081877 C-5.67582814e-16,15.1892162 1.60559161,16.7948078 3.58662007,16.7948078 L20.4133799,16.7948078 C22.3944084,16.7948078 24,15.1892162 24,13.2081877 L24,3.58662007 L23.996006,3.58662007 Z M9.59760359,12.457314 L9.59760359,3.4228657 L16.451323,7.94008987 L9.59760359,12.457314 Z" transform="translate(0 3.605)"/>
</symbol></svg>