<?xml version="1.0" encoding="UTF-8"?><!DOCTYPE svg PUBLIC "-//W3C//DTD SVG 1.1//EN" "http://www.w3.org/Graphics/SVG/1.1/DTD/svg11.dtd"><svg xmlns="http://www.w3.org/2000/svg" xmlns:xlink="http://www.w3.org/1999/xlink"><defs>
        <linearGradient x1="50.0012509%" y1="100.270574%" x2="50.0012509%" y2="10.131036%" id="linearGradient-1">
            <stop stop-color="#1A1A1A" stop-opacity="0.1" offset="0%"/>
            <stop stop-color="#212121" stop-opacity="0.1506" offset="12.35%"/>
            <stop stop-color="#353535" stop-opacity="0.2265" offset="30.85%"/>
            <stop stop-color="#575757" stop-opacity="0.3181" offset="53.21%"/>
            <stop stop-color="#858585" stop-opacity="0.4212" offset="78.34%"/>
            <stop stop-color="#B3B3B3" stop-opacity="0.51" offset="100%"/>
        </linearGradient>
    
        <linearGradient x1="61.0301652%" y1="4.94958549%" x2="26.4625815%" y2="71.9258683%" id="linearGradient-1">
            <stop stop-color="#00A0FF" offset="0%"/>
            <stop stop-color="#00A1FF" offset="0.6569999%"/>
            <stop stop-color="#00BEFF" offset="26.01%"/>
            <stop stop-color="#00D2FF" offset="51.22%"/>
            <stop stop-color="#00DFFF" offset="76.04%"/>
            <stop stop-color="#00E3FF" offset="100%"/>
        </linearGradient>
        <linearGradient x1="107.630451%" y1="50.0004315%" x2="-130.551706%" y2="50.0004315%" id="linearGradient-2">
            <stop stop-color="#FFE000" offset="0%"/>
            <stop stop-color="#FFBD00" offset="40.87%"/>
            <stop stop-color="#FFA500" offset="77.54%"/>
            <stop stop-color="#FF9C00" offset="100%"/>
        </linearGradient>
        <linearGradient x1="86.243474%" y1="30.90425%" x2="-50.1292379%" y2="136.019454%" id="linearGradient-3">
            <stop stop-color="#FF3A44" offset="0%"/>
            <stop stop-color="#C31162" offset="100%"/>
        </linearGradient>
        <linearGradient x1="-18.8105628%" y1="-11.8250802%" x2="42.0848536%" y2="35.086648%" id="linearGradient-4">
            <stop stop-color="#32A071" offset="0%"/>
            <stop stop-color="#2DA771" offset="6.85%"/>
            <stop stop-color="#15CF74" offset="47.62%"/>
            <stop stop-color="#06E775" offset="80.09%"/>
            <stop stop-color="#00F076" offset="100%"/>
        </linearGradient>
    <radialGradient id="a" cx="332.14" cy="2511.81" r="3263.54" gradientUnits="userSpaceOnUse"><stop offset=".09" stop-color="#fa8f21"/><stop offset=".78" stop-color="#d82d7e"/></radialGradient><radialGradient id="b" cx="1516.14" cy="2623.81" r="2572.12" gradientUnits="userSpaceOnUse"><stop offset=".64" stop-color="#8c3aaa" stop-opacity="0"/><stop offset="1" stop-color="#8c3aaa"/></radialGradient></defs><symbol id="applestore" viewBox="0 0 135 40">
    <title>Available_on_the_App_Store_(black)_SVG</title>
    
    <g id="Page-1" stroke="none" stroke-width="1" fill="none" fill-rule="evenodd">
        <g id="Available_on_the_App_Store_(black)_SVG" fill-rule="nonzero">
            <path d="M134.032,35.268 C134.032,37.384 132.318,39.098 130.198,39.098 L4.729,39.098 C2.61,39.098 0.89,37.384 0.89,35.268 L0.89,4.725 C0.89,2.61 2.61,0.89 4.729,0.89 L130.197,0.89 C132.318,0.89 134.032,2.61 134.032,4.725 L134.032,35.268 L134.032,35.268 Z" id="Path" fill="#FFFFFF"/>
            <path d="M130.198,39.989 L4.729,39.989 C2.122,39.989 0,37.872 0,35.268 L0,4.726 C0,2.12 2.122,0 4.729,0 L130.197,0 C132.801,0 134.926001,2.12 134.926001,4.726 L134.926001,35.268 C134.928,37.872 132.803,39.989 130.198,39.989 L130.198,39.989 Z" id="Path" fill="#A6A6A6"/>
            <path d="M134.032,35.268 C134.032,37.384 132.318,39.098 130.198,39.098 L4.729,39.098 C2.61,39.098 0.89,37.384 0.89,35.268 L0.89,4.725 C0.89,2.61 2.61,0.89 4.729,0.89 L130.197,0.89 C132.318,0.89 134.032,2.61 134.032,4.725 L134.032,35.268 L134.032,35.268 Z" id="Path" fill="#000000"/>
            <path d="M30.128,19.784 C30.099,16.561 32.767,14.993 32.889,14.92 C31.378,12.717 29.036,12.416 28.213,12.392 C26.246,12.185 24.338,13.569 23.336,13.569 C22.314,13.569 20.771,12.412 19.108,12.446 C16.968,12.479 14.966,13.718 13.868,15.642 C11.602,19.565 13.292,25.33 15.463,28.501 C16.549,30.055 17.818,31.788 19.479,31.727 C21.104,31.661 21.711,30.692 23.672,30.692 C25.615,30.692 26.185,31.727 27.879,31.688 C29.623,31.661 30.721,30.128 31.769,28.561 C33.024,26.782 33.528,25.028 33.548,24.938 C33.508,24.924 30.162,23.646 30.128,19.784 Z" id="Path" fill="#FFFFFF"/>
            <path d="M26.928,10.306 C27.802,9.213 28.4,7.726 28.234,6.217 C26.969,6.273 25.387,7.092 24.476,8.161 C23.67,9.103 22.95,10.647 23.136,12.099 C24.557,12.205 26.016,11.382 26.928,10.306 Z" id="Path" fill="#FFFFFF"/>
            <path d="M130.198,0 L62.993,0 L89.316,39.989 L130.198,39.989 C132.802,39.989 134.927,37.872 134.927,35.265 L134.927,4.726 C134.928,2.12 132.803,0 130.198,0 Z" id="Path" fill="url(#linearGradient-1)"/>
            <g id="Group" transform="translate(42.430000, 17.999000)" fill="#FFFFFF">
                <path d="M11.235,13.505 L8.964,13.505 L7.72,9.596 L3.396,9.596 L2.211,13.505 L7.10542736e-15,13.505 L4.285,0.197 L6.931,0.197 L11.235,13.505 Z M7.345,7.956 L6.22,4.481 C6.101,4.126 5.877,3.29 5.549,1.974 L5.509,1.974 C5.377,2.54 5.166,3.376 4.877,4.481 L3.771,7.956 L7.345,7.956 L7.345,7.956 Z" id="Shape"/>
                <path d="M22.233,8.589 C22.233,10.221 21.79,11.511 20.903,12.458 C20.109,13.301 19.122,13.722 17.945,13.722 C16.674,13.722 15.76,13.269 15.205,12.361 L15.205,17.396 L13.073,17.396 L13.073,7.063 C13.073,6.038 13.046,4.987 12.994,3.909 L14.869,3.909 L14.988,5.43 L15.028,5.43 C15.739,4.284 16.818,3.711 18.266,3.711 C19.398,3.711 20.343,4.158 21.099,5.053 C21.854,5.95 22.233,7.128 22.233,8.589 Z M20.061,8.667 C20.061,7.733 19.851,6.963 19.429,6.356 C18.968,5.725 18.349,5.409 17.573,5.409 C17.047,5.409 16.569,5.585 16.142,5.932 C15.714,6.282 15.434,6.739 15.303,7.305 C15.237,7.569 15.204,7.784 15.204,7.954 L15.204,9.555 C15.204,10.252 15.418,10.841 15.846,11.323 C16.274,11.803 16.83,12.044 17.514,12.044 C18.317,12.044 18.942,11.733 19.389,11.116 C19.837,10.497 20.061,9.681 20.061,8.667 Z" id="Shape"/>
                <path d="M33.27,8.589 C33.27,10.221 32.827,11.511 31.94,12.458 C31.145,13.301 30.159,13.722 28.981,13.722 C27.71,13.722 26.796,13.269 26.241,12.361 L26.241,17.396 L24.109,17.396 L24.109,7.063 C24.109,6.038 24.082,4.987 24.03,3.909 L25.905,3.909 L26.024,5.43 L26.064,5.43 C26.774,4.284 27.853,3.711 29.302,3.711 C30.433,3.711 31.378,4.158 32.136,5.053 C32.89,5.95 33.27,7.128 33.27,8.589 Z M31.097,8.667 C31.097,7.733 30.886,6.963 30.464,6.356 C30.003,5.725 29.386,5.409 28.61,5.409 C28.084,5.409 27.606,5.585 27.177,5.932 C26.749,6.282 26.47,6.739 26.339,7.305 C26.274,7.569 26.239,7.784 26.239,7.954 L26.239,9.555 C26.239,10.252 26.454,10.841 26.88,11.323 C27.308,11.802 27.864,12.044 28.55,12.044 C29.354,12.044 29.979,11.733 30.425,11.116 C30.873,10.497 31.097,9.681 31.097,8.667 Z" id="Shape"/>
                <path d="M45.61,9.772 C45.61,10.905 45.214,11.826 44.427,12.537 C43.561,13.313 42.352,13.702 40.802,13.702 C39.37,13.702 38.222,13.426 37.356,12.873 L37.849,11.096 C38.784,11.65 39.811,11.926 40.929,11.926 C41.733,11.926 42.358,11.744 42.804,11.383 C43.251,11.021 43.477,10.537 43.477,9.933 C43.477,9.392 43.29,8.939 42.923,8.57 C42.554,8.202 41.944,7.859 41.087,7.544 C38.757,6.675 37.591,5.404 37.591,3.732 C37.591,2.64 38.003,1.746 38.825,1.047 C39.647,0.349 40.737,-3.55271368e-15 42.093,-3.55271368e-15 C43.304,-3.55271368e-15 44.313,0.211 45.114,0.632 L44.579,2.37 C43.825,1.962 42.974,1.758 42.022,1.758 C41.27,1.758 40.68,1.943 40.258,2.311 C39.903,2.64 39.723,3.041 39.723,3.517 C39.723,4.042 39.928,4.478 40.336,4.82 C40.69,5.135 41.336,5.478 42.27,5.846 C43.416,6.308 44.258,6.846 44.797,7.464 C45.34,8.082 45.61,8.853 45.61,9.772 Z" id="Path"/>
                <path d="M52.677,5.509 L50.327,5.509 L50.327,10.168 C50.327,11.353 50.741,11.944 51.571,11.944 C51.952,11.944 52.268,11.912 52.518,11.845 L52.577,13.464 C52.157,13.621 51.604,13.7 50.919,13.7 C50.077,13.7 49.419,13.443 48.944,12.929 C48.471,12.415 48.233,11.554 48.233,10.342 L48.233,5.505 L46.833,5.505 L46.833,3.905 L48.233,3.905 L48.233,2.148 L50.327,1.516 L50.327,3.905 L52.677,3.905 L52.677,5.509 Z" id="Path"/>
                <path d="M63.259,8.628 C63.259,10.103 62.837,11.314 61.995,12.261 C61.114,13.236 59.942,13.722 58.481,13.722 C57.071,13.722 55.95,13.255 55.114,12.322 C54.278,11.387 53.86,10.209 53.86,8.788 C53.86,7.301 54.292,6.083 55.153,5.136 C56.016,4.188 57.178,3.714 58.639,3.714 C60.047,3.714 61.178,4.182 62.034,5.116 C62.852,6.022 63.259,7.192 63.259,8.628 Z M61.049,8.677 C61.049,7.798 60.859,7.044 60.478,6.413 C60.031,5.651 59.391,5.27 58.562,5.27 C57.708,5.27 57.053,5.651 56.607,6.413 C56.225,7.044 56.035,7.811 56.035,8.717 C56.035,9.597 56.225,10.353 56.607,10.982 C57.068,11.744 57.711,12.125 58.544,12.125 C59.359,12.125 59.998,11.736 60.46,10.963 C60.852,10.317 61.049,9.558 61.049,8.677 Z" id="Shape"/>
                <path d="M70.192,5.784 C69.981,5.745 69.755,5.725 69.52,5.725 C68.77,5.725 68.19,6.007 67.782,6.575 C67.428,7.075 67.25,7.707 67.25,8.47 L67.25,13.505 L65.118,13.505 L65.118,6.931 C65.118,5.826 65.097,4.818 65.056,3.91 L66.913,3.91 L66.991,5.746 L67.05,5.746 C67.276,5.115 67.63,4.606 68.116,4.225 C68.591,3.882 69.104,3.711 69.657,3.711 C69.854,3.711 70.032,3.725 70.19,3.75 L70.192,5.784 L70.192,5.784 Z" id="Path"/>
                <path d="M79.727,8.253 C79.727,8.635 79.702,8.957 79.649,9.22 L73.253,9.22 C73.277,10.168 73.587,10.894 74.181,11.394 C74.72,11.84 75.417,12.064 76.273,12.064 C77.22,12.064 78.084,11.914 78.861,11.611 L79.195,13.09 C78.287,13.486 77.215,13.683 75.978,13.683 C74.49,13.683 73.322,13.245 72.472,12.371 C71.624,11.496 71.199,10.32 71.199,8.847 C71.199,7.401 71.594,6.196 72.385,5.235 C73.213,4.209 74.332,3.696 75.74,3.696 C77.123,3.696 78.17,4.209 78.881,5.235 C79.444,6.048 79.727,7.056 79.727,8.253 Z M77.694,7.7 C77.709,7.067 77.569,6.522 77.28,6.061 C76.911,5.467 76.343,5.171 75.582,5.171 C74.885,5.171 74.317,5.46 73.885,6.04 C73.53,6.501 73.319,7.055 73.254,7.698 L77.694,7.7 L77.694,7.7 Z" id="Shape"/>
            </g>
            <g id="Group" transform="translate(43.224000, 6.553000)" fill="#FFFFFF">
                <path d="M5.523,6.88 L4.406,6.88 L3.795,4.959 L1.67,4.959 L1.087,6.88 L7.10542736e-15,6.88 L2.106,0.339 L3.406,0.339 L5.523,6.88 Z M3.611,4.153 L3.058,2.445 C3,2.27 2.893,1.863 2.728,1.213 L2.708,1.213 C2.64,1.494 2.543,1.902 2.397,2.445 L1.854,4.153 L3.611,4.153 Z" id="Shape"/>
                <path d="M10.789,2.164 L9.003,6.88 L7.984,6.88 L6.256,2.164 L7.382,2.164 L8.188,4.658 C8.324,5.075 8.44,5.473 8.527,5.851 L8.556,5.851 C8.634,5.512 8.75,5.114 8.895,4.658 L9.691,2.164 L10.789,2.164 Z" id="Path"/>
                <path d="M14.591,6.88 L14.513,6.337 L14.484,6.337 C14.164,6.774 13.698,6.987 13.106,6.987 C12.262,6.987 11.66,6.395 11.66,5.599 C11.66,4.435 12.669,3.833 14.416,3.833 L14.416,3.746 C14.416,3.125 14.086,2.814 13.436,2.814 C12.97,2.814 12.562,2.931 12.204,3.164 L11.991,2.475 C12.428,2.203 12.971,2.067 13.612,2.067 C14.844,2.067 15.466,2.717 15.466,4.018 L15.466,5.755 C15.466,6.231 15.486,6.6 15.534,6.881 L14.591,6.88 L14.591,6.88 Z M14.445,4.531 C13.28,4.531 12.698,4.813 12.698,5.482 C12.698,5.977 12.999,6.219 13.416,6.219 C13.95,6.219 14.445,5.812 14.445,5.259 L14.445,4.531 Z" id="Shape"/>
                <path d="M17.8,1.387 C17.451,1.387 17.179,1.115 17.179,0.756 C17.179,0.397 17.46,0.135 17.82,0.135 C18.179,0.135 18.47,0.397 18.46,0.756 C18.46,1.135 18.189,1.387 17.8,1.387 Z M18.344,6.88 L17.296,6.88 L17.296,2.164 L18.344,2.164 L18.344,6.88 L18.344,6.88 Z" id="Shape"/>
                <polygon id="Path" points="21.254 6.88 20.206 6.88 20.206 -1.77635684e-15 21.254 -1.77635684e-15"/>
                <path d="M25.708,6.88 L25.63,6.337 L25.601,6.337 C25.281,6.774 24.815,6.987 24.223,6.987 C23.379,6.987 22.777,6.395 22.777,5.599 C22.777,4.435 23.786,3.833 25.533,3.833 L25.533,3.746 C25.533,3.125 25.203,2.814 24.553,2.814 C24.087,2.814 23.679,2.931 23.321,3.164 L23.107,2.474 C23.544,2.202 24.087,2.066 24.728,2.066 C25.96,2.066 26.582,2.716 26.582,4.017 L26.582,5.754 C26.582,6.23 26.603,6.599 26.649,6.88 L25.708,6.88 L25.708,6.88 Z M25.562,4.531 C24.397,4.531 23.815,4.813 23.815,5.482 C23.815,5.977 24.116,6.219 24.533,6.219 C25.067,6.219 25.562,5.812 25.562,5.259 L25.562,4.531 Z" id="Shape"/>
                <path d="M30.828,6.987 C30.159,6.987 29.665,6.705 29.345,6.152 L29.324,6.152 L29.264,6.88 L28.371,6.88 C28.4,6.502 28.41,6.074 28.41,5.609 L28.41,-1.77635684e-15 L29.459,-1.77635684e-15 L29.459,2.854 L29.479,2.854 C29.79,2.33 30.293,2.068 30.983,2.068 C32.119,2.068 32.915,3.039 32.915,4.455 C32.915,5.919 32.031,6.987 30.828,6.987 Z M30.615,2.891 C30.012,2.891 29.46,3.415 29.46,4.143 L29.46,4.968 C29.46,5.618 29.956,6.152 30.597,6.152 C31.382,6.152 31.849,5.512 31.849,4.493 C31.848,3.542 31.362,2.891 30.615,2.891 Z" id="Shape"/>
                <polygon id="Path" points="35.512 6.88 34.465 6.88 34.465 -1.77635684e-15 35.512 -1.77635684e-15"/>
                <path d="M41.217,4.774 L38.071,4.774 C38.092,5.667 38.682,6.171 39.556,6.171 C40.022,6.171 40.449,6.093 40.827,5.948 L40.99,6.676 C40.544,6.87 40.02,6.967 39.409,6.967 C37.933,6.967 37.06,6.035 37.06,4.59 C37.06,3.144 37.954,2.057 39.291,2.057 C40.494,2.057 41.252,2.95 41.252,4.299 C41.256,4.483 41.247,4.648 41.217,4.774 Z M40.256,4.027 C40.256,3.299 39.887,2.785 39.217,2.785 C38.615,2.785 38.141,3.309 38.071,4.027 L40.256,4.027 L40.256,4.027 Z" id="Shape"/>
                <path d="M47.569,6.987 C46.191,6.987 45.298,5.958 45.298,4.561 C45.298,3.105 46.21,2.067 47.648,2.067 C49.005,2.067 49.919,3.047 49.919,4.484 C49.919,5.958 48.977,6.987 47.569,6.987 Z M47.609,2.833 C46.852,2.833 46.367,3.541 46.367,4.531 C46.367,5.502 46.862,6.21 47.599,6.21 C48.336,6.21 48.8300015,5.453 48.8300015,4.511 C48.831,3.551 48.346,2.833 47.609,2.833 Z" id="Shape"/>
                <path d="M55.553,6.88 L54.506,6.88 L54.506,4.172 C54.506,3.338 54.186,2.92 53.555,2.92 C52.934,2.92 52.506,3.454 52.506,4.075 L52.506,6.88 L51.459,6.88 L51.459,3.512 C51.459,3.095 51.448,2.648 51.42,2.163 L52.342,2.163 L52.391,2.891 L52.42,2.891 C52.7,2.387 53.274,2.066 53.914,2.066 C54.903,2.066 55.553,2.823 55.553,4.055 L55.553,6.88 L55.553,6.88 Z" id="Path"/>
                <path d="M62.41,2.95 L61.257,2.95 L61.257,5.24 C61.257,5.823 61.46,6.114 61.867,6.114 C62.052,6.114 62.208,6.094 62.333,6.065 L62.362,6.861 C62.158,6.939 61.885,6.978 61.548,6.978 C60.722,6.978 60.229,6.522 60.229,5.328 L60.229,2.95 L59.541,2.95 L59.541,2.164 L60.229,2.164 L60.229,1.3 L61.257,0.989 L61.257,2.163 L62.41,2.163 L62.41,2.95 Z" id="Path"/>
                <path d="M67.96,6.88 L66.911,6.88 L66.911,4.192 C66.911,3.348 66.591,2.921 65.96,2.921 C65.417,2.921 64.913,3.29 64.913,4.037 L64.913,6.88 L63.864,6.88 L63.864,-1.77635684e-15 L64.913,-1.77635684e-15 L64.913,2.833 L64.933,2.833 C65.263,2.319 65.739,2.066 66.35,2.066 C67.349,2.066 67.96,2.842 67.96,4.075 L67.96,6.88 Z" id="Path"/>
                <path d="M73.315,4.774 L70.17,4.774 C70.19,5.667 70.78,6.171 71.654,6.171 C72.121,6.171 72.547,6.093 72.925,5.948 L73.089,6.676 C72.643,6.87 72.118,6.967 71.507,6.967 C70.031,6.967 69.158,6.035 69.158,4.59 C69.158,3.144 70.052,2.057 71.389,2.057 C72.592,2.057 73.35,2.95 73.35,4.299 C73.354,4.483 73.344,4.648 73.315,4.774 Z M72.354,4.027 C72.354,3.299 71.986,2.785 71.316,2.785 C70.713,2.785 70.239,3.309 70.17,4.027 L72.354,4.027 L72.354,4.027 Z" id="Shape"/>
            </g>
        </g>
    </g>
</symbol><symbol id="facebook" viewBox="126.445 2.281 589 589"><circle cx="420.945" cy="296.781" r="294.5" fill="#3c5a9a"/><path d="M516.704 92.677h-65.239c-38.715 0-81.777 16.283-81.777 72.402.189 19.554 0 38.281 0 59.357H324.9v71.271h46.174v205.177h84.847V294.353h56.002l5.067-70.117h-62.531s.14-31.191 0-40.249c0-22.177 23.076-20.907 24.464-20.907 10.981 0 32.332.032 37.813 0V92.677h-.032z" fill="#fff"/></symbol><symbol id="googleplay" viewBox="0 0 5436 1604">
    <title>Google_Play_Store_badge_EN</title>
    
    <g id="Page-1" stroke="none" stroke-width="1" fill="none" fill-rule="evenodd">
        <g id="Google_Play_Store_badge_EN">
            <path d="M5234.4,1604 L201.4,1604 C90.4,1604 0,1513.6 0,1403.5 L0,200.5 C0,90 90.4,0 201.4,0 L5234.4,0 C5345.3,0 5435.8,90 5435.8,200.5 L5435.8,1403.5 C5435.8,1513.6 5345.3,1604 5234.4,1604 Z" id="Path" fill="#000000" fill-rule="nonzero"/>
            <path d="M5234.4,32.1 C5327.5,32.1 5403.7,107.8 5403.7,200.5 L5403.7,1403.5 C5403.7,1496.2 5328,1571.9 5234.4,1571.9 L201.4,1571.9 C108.3,1571.9 32.1,1496.2 32.1,1403.5 L32.1,200.5 C32.1,107.8 107.8,32.1 201.4,32.1 C201.4,32.1 5234.4,32.1 5234.4,32.1 Z M5234.4,0 L201.4,0 C90.4,0 0,90.4 0,200.5 L0,1403.5 C0,1514 90.4,1604 201.4,1604 L5234.4,1604 C5345.3,1604 5435.8,1514 5435.8,1403.5 L5435.8,200.5 C5435.8,90.4 5345.3,0 5234.4,0 Z" id="Shape" fill="#A6A6A6"/>
            <path d="M2863.6,530.6 C2827.3,530.6 2796.7,517.9 2772.5,492.9 C2748.5,468.6 2735.1,435.1 2735.7,400.9 C2735.7,364.4 2748.1,333.5 2772.5,309 C2796.6,284 2827.2,271.3 2863.5,271.3 C2899.4,271.3 2930,284 2954.6,309 C2979,334.3 2991.4,365.2 2991.4,400.9 C2991,437.5 2978.6,468.4 2954.6,492.8 C2930.5,518 2899.9,530.6 2863.6,530.6 Z M1783.5,530.6 C1748,530.6 1717.2,518.1 1692,493.4 C1667,468.8 1654.3,437.7 1654.3,401 C1654.3,364.3 1667,333.2 1692,308.6 C1716.7,283.9 1747.5,271.4 1783.5,271.4 C1801.1,271.4 1818.2,274.9 1834.6,282 C1850.7,288.9 1863.8,298.3 1873.5,309.8 L1875.9,312.7 L1848.8,339.3 L1846,336 C1830.7,317.8 1810.2,308.9 1783.1,308.9 C1758.9,308.9 1737.8,317.5 1720.4,334.5 C1702.9,351.6 1694,374 1694,401.1 C1694,428.2 1702.9,450.6 1720.4,467.7 C1737.8,484.7 1758.9,493.3 1783.1,493.3 C1808.9,493.3 1830.6,484.7 1847.5,467.7 C1857.5,457.7 1863.7,443.7 1865.9,426 L1779,426 L1779,388.6 L1903.2,388.6 L1903.7,392 C1904.6,398.3 1905.5,404.8 1905.5,410.8 C1905.5,445.3 1895.1,473.2 1874.5,493.8 C1851.1,518.2 1820.5,530.6 1783.5,530.6 Z M3219.6,525.3 L3181.3,525.3 L3064,337.6 L3065,371.4 L3065,525.2 L3026.7,525.2 L3026.7,276.7 L3070.4,276.7 L3071.6,278.6 L3181.9,455.4 L3180.9,421.7 L3180.9,276.7 L3219.6,276.7 L3219.6,525.3 L3219.6,525.3 Z M2575.8,525.3 L2537,525.3 L2537,314.1 L2469.7,314.1 L2469.7,276.7 L2643,276.7 L2643,314.1 L2575.7,314.1 L2575.7,525.3 L2575.8,525.3 Z M2438.1,525.3 L2399.4,525.3 L2399.4,276.7 L2438.1,276.7 L2438.1,525.3 Z M2220.6,525.3 L2181.9,525.3 L2181.9,314.1 L2114.6,314.1 L2114.6,276.7 L2287.9,276.7 L2287.9,314.1 L2220.6,314.1 L2220.6,525.3 Z M2090.1,524.9 L1941.7,524.9 L1941.7,276.7 L2090.1,276.7 L2090.1,314.1 L1980.5,314.1 L1980.5,382.3 L2079.4,382.3 L2079.4,419.3 L1980.5,419.3 L1980.5,487.5 L2090.1,487.5 L2090.1,524.9 Z M2800.9,467.2 C2818.2,484.5 2839.2,493.2 2863.6,493.2 C2888.7,493.2 2909.2,484.7 2926.3,467.2 C2943.3,450.2 2951.9,427.9 2951.9,401 C2951.9,374.1 2943.3,351.7 2926.4,334.8 C2909.1,317.5 2888,308.8 2863.7,308.8 C2838.6,308.8 2818.1,317.3 2801.1,334.8 C2784.1,351.8 2775.5,374.1 2775.5,401 C2775.5,427.9 2784,450.3 2800.9,467.2 L2800.9,467.2 Z" id="Shape" fill="#FFFFFF" fill-rule="nonzero"/>
            <path d="M2732.1,872.4 C2637.6,872.4 2561,944.1 2561,1043 C2561,1141 2638.1,1213.6 2732.1,1213.6 C2826.6,1213.6 2903.2,1141.4 2903.2,1043 C2903.2,944.1 2826.6,872.4 2732.1,872.4 Z M2732.1,1146 C2680.4,1146 2635.9,1103.2 2635.9,1042.6 C2635.9,981.1 2680.5,939.2 2732.1,939.2 C2783.8,939.2 2828.30017,981.1 2828.30017,1042.6 C2828.4,1103.6 2783.8,1146 2732.1,1146 Z M2358.8,872.4 C2264.3,872.4 2187.7,944.1 2187.7,1043 C2187.7,1141 2264.8,1213.6 2358.8,1213.6 C2453.3,1213.6 2529.9,1141.4 2529.9,1043 C2529.9,944.1 2453.2,872.4 2358.8,872.4 Z M2358.8,1146 C2307.1,1146 2262.6,1103.2 2262.6,1042.6 C2262.6,981.1 2307.2,939.2 2358.8,939.2 C2410.5,939.2 2455,981.1 2455,1042.6 C2455,1103.6 2410.5,1146 2358.8,1146 Z M1914.6,924.5 L1914.6,996.7 L2087.9,996.7 C2082.6,1037.2 2069.2,1067.1 2048.7,1087.6 C2023.3,1113 1984.1,1140.6 1915,1140.6 C1808.5,1140.6 1725.2,1054.6 1725.2,948.1 C1725.2,841.6 1808.5,755.6 1915,755.6 C1972.5,755.6 2014.4,778.3 2045.5,807.3 L2096.7,756.1 C2053.5,714.7 1996,683 1915.4,683 C1769.3,683 1646.7,802 1646.7,947.7 C1646.7,1093.8 1769.2,1212.4 1915.4,1212.4 C1994.3,1212.4 2053.5,1186.6 2100.3,1138 C2148,1090.3 2163.1,1023 2163.1,968.7 C2163.1,951.8 2161.8,936.6 2159.1,923.7 L1914.5,923.7 C1914.6,923.6 1914.6,924.5 1914.6,924.5 Z M3731.5,980.7 C3717.2,942.4 3674,872 3585.4,872 C3497.6,872 3424.6,941.1 3424.6,1042.6 C3424.6,1138.4 3496.8,1213.2 3593.9,1213.2 C3671.9,1213.2 3717.3,1165.5 3736,1137.5 L3678.1,1098.7 C3658.9,1127.2 3632.2,1145.9 3594.3,1145.9 C3556,1145.9 3529.2,1128.5 3511.4,1094.2 L3739.5,999.7 C3739.5,999.8 3731.5,980.7 3731.5,980.7 Z M3498.9,1037.7 C3497.1,971.8 3550.1,938.3 3588,938.3 C3617.9,938.3 3642.8,953 3651.3,974.4 L3498.9,1037.7 Z M3313.6,1203 L3388.5,1203 L3388.5,701.8 L3313.6,701.8 L3313.6,1203 Z M3190.6,910.3 L3187.9,910.3 C3171,890.2 3138.9,872 3097.9,872 C3012.8,872 2934.4,946.9 2934.4,1043.1 C2934.4,1138.9 3012.4,1212.9 3097.9,1212.9 C3138.4,1212.9 3171,1194.6 3187.9,1174.1 L3190.6,1174.1 L3190.6,1198.6 C3190.6,1263.7 3155.8,1298.8 3099.7,1298.8 C3053.8,1298.8 3025.3,1265.8 3013.7,1238.2 L2948.6,1265.4 C2967.3,1310.4 3017.2,1366.1 3099.6,1366.1 C3187.4,1366.1 3261.8,1314.4 3261.8,1188.3 L3261.8,882.2 L3191,882.2 L3191,910.3 C3191.1,910.3 3190.6,910.3 3190.6,910.3 Z M3104.6,1146 C3052.9,1146 3009.7,1102.8 3009.7,1043.1 C3009.7,982.9 3052.9,939.3 3104.6,939.3 C3155.8,939.3 3195.5,983.4 3195.5,1043.1 C3196,1102.8 3155.9,1146 3104.6,1146 Z M4082.2,701.8 L3903.1,701.8 L3903.1,1203 L3978,1203 L3978,1013.2 L4082.3,1013.2 C4165.2,1013.2 4246.7,953.1 4246.7,857.7 C4246.7,762.3 4165.5,701.8 4082.2,701.8 Z M4084.4,943.2 L3977.9,943.2 L3977.9,771.2 L4084.4,771.2 C4140.5,771.2 4172.2,817.5 4172.2,857.2 C4172.2,896.5 4140.1,943.2 4084.4,943.2 Z M4546.9,871.5 C4492.5,871.5 4436.4,895.6 4413.2,948.1 L4479.6,975.7 C4493.9,948.1 4520.1,938.7 4547.8,938.7 C4586.6,938.7 4625.8,961.9 4626.7,1003.3 L4626.7,1008.6 C4613.3,1001 4583.9,989.4 4548.7,989.4 C4477,989.4 4404.3,1028.6 4404.3,1102.1 C4404.3,1169.4 4463.1,1212.6 4528.6,1212.6 C4578.9,1212.6 4606.6,1189.9 4623.9,1163.6 L4626.6,1163.6 L4626.6,1202.4 L4698.8,1202.4 L4698.8,1010.4 C4698.8,921 4632.4,871.5 4546.9,871.5 Z M4537.5,1146 C4513,1146 4478.7,1134 4478.7,1103.2 C4478.7,1064.4 4521.5,1049.7 4558,1049.7 C4591,1049.7 4606.6,1056.8 4626.2,1066.6 C4620.8,1111.6 4582.8,1145.6 4537.5,1146 Z M4962.2,882.2 L4876.2,1099.6 L4873.5,1099.6 L4784.4,882.2 L4703.8,882.2 L4837.5,1186.1 L4761.3,1355 L4839.3,1355 L5045,882.2 C5045,882.2 4962.2,882.2 4962.2,882.2 Z M4288,1203 L4362.9,1203 L4362.9,701.8 L4288,701.8 L4288,1203 Z" id="Shape" fill="#FFFFFF"/>
            <path d="M418.4,302.1 C406.8,314.6 400.1,333.7 400.1,358.7 L400.1,1245.4 C400.1,1270.4 406.8,1289.5 418.8,1301.5 L421.9,1304.2 L918.7,807.4 L918.7,796.3 L421.5,299.4 C421.5,299.4 418.4,302.1 418.4,302.1 Z" id="Path" fill="url(#linearGradient-1)"/>
            <path d="M1084,973.5 L918.3,807.8 L918.3,796.2 L1084,630.5 L1087.6,632.7 L1283.6,744.1 C1339.7,775.7 1339.7,827.9 1283.6,859.9 L1087.6,971.3 C1087.6,971.3 1084,973.5 1084,973.5 Z" id="Path" fill="url(#linearGradient-2)"/>
            <path d="M1087.6,971.3 L918.3,802 L418.4,1301.9 C436.7,1321.5 467.4,1323.7 501.7,1304.6 L1087.6,971.3" id="Path" fill="url(#linearGradient-3)"/>
            <path d="M1087.6,632.7 L501.7,299.9 C467.4,280.3 436.6,283 418.4,302.6 L918.3,802 L1087.6,632.7 Z" id="Path" fill="url(#linearGradient-4)"/>
            <path d="M1084,967.7 L502.1,1298.3 C469.6,1317 440.6,1315.7 421.9,1298.7 L418.8,1301.8 L421.9,1304.5 C440.6,1321.4 469.6,1322.8 502.1,1304.1 L1088,971.3 C1088,971.3 1084,967.7 1084,967.7 Z" id="Path" fill="#000000" fill-rule="nonzero" opacity="0.2"/>
            <path d="M1283.6,854.1 L1083.5,967.7 L1087.1,971.3 L1283.1,859.9 C1311.2,843.9 1325,822.9 1325,802 C1323.3,821.2 1309,839.4 1283.6,854.1 Z" id="Path" fill="#000000" fill-rule="nonzero" opacity="0.12"/>
            <path d="M501.7,305.7 L1283.6,749.9 C1309,764.2 1323.3,782.9 1325.5,802 C1325.5,781.1 1311.7,760.1 1283.6,744.1 L501.7,299.9 C445.6,267.8 400.1,294.6 400.1,358.7 L400.1,364.5 C400.1,300.3 445.6,274 501.7,305.7 Z" id="Path" fill="#FFFFFF" opacity="0.25"/>
        </g>
    </g>
</symbol><symbol id="instagram" viewBox="0 0 2499.899999999999 2500"><path d="M833.4 1250c0-230.11 186.49-416.7 416.6-416.7s416.7 186.59 416.7 416.7-186.59 416.7-416.7 416.7-416.6-186.59-416.6-416.7m-225.26 0c0 354.5 287.36 641.86 641.86 641.86s641.86-287.36 641.86-641.86S1604.5 608.14 1250 608.14 608.14 895.5 608.14 1250m1159.13-667.31a150 150 0 1 0 150.06-149.94h-.06a150.07 150.07 0 0 0-150 149.94M745 2267.47c-121.87-5.55-188.11-25.85-232.13-43-58.36-22.72-100-49.78-143.78-93.5s-70.88-85.32-93.5-143.68c-17.16-44-37.46-110.26-43-232.13-6.06-131.76-7.27-171.34-7.27-505.15s1.31-373.28 7.27-505.15c5.55-121.87 26-188 43-232.13 22.72-58.36 49.78-100 93.5-143.78s85.32-70.88 143.78-93.5c44-17.16 110.26-37.46 232.13-43 131.76-6.06 171.34-7.27 505-7.27s373.28 1.31 505.15 7.27c121.87 5.55 188 26 232.13 43 58.36 22.62 100 49.78 143.78 93.5s70.78 85.42 93.5 143.78c17.16 44 37.46 110.26 43 232.13 6.06 131.87 7.27 171.34 7.27 505.15s-1.21 373.28-7.27 505.15c-5.55 121.87-25.95 188.11-43 232.13-22.72 58.36-49.78 100-93.5 143.68s-85.42 70.78-143.78 93.5c-44 17.16-110.26 37.46-232.13 43-131.76 6.06-171.34 7.27-505.15 7.27s-373.28-1.21-505-7.27M734.65 7.57c-133.07 6.06-224 27.16-303.41 58.06C349 97.54 279.38 140.35 209.81 209.81S97.54 349 65.63 431.24c-30.9 79.46-52 170.34-58.06 303.41C1.41 867.93 0 910.54 0 1250s1.41 382.07 7.57 515.35c6.06 133.08 27.16 223.95 58.06 303.41 31.91 82.19 74.62 152 144.18 221.43S349 2402.37 431.24 2434.37c79.56 30.9 170.34 52 303.41 58.06C868 2498.49 910.54 2500 1250 2500s382.07-1.41 515.35-7.57c133.08-6.06 223.95-27.16 303.41-58.06 82.19-32 151.86-74.72 221.43-144.18s112.18-139.24 144.18-221.43c30.9-79.46 52.1-170.34 58.06-303.41 6.06-133.38 7.47-175.89 7.47-515.35s-1.41-382.07-7.47-515.35c-6.06-133.08-27.16-224-58.06-303.41-32-82.19-74.72-151.86-144.18-221.43S2150.95 97.54 2068.86 65.63c-79.56-30.9-170.44-52.1-303.41-58.06C1632.17 1.51 1589.56 0 1250.1 0S868 1.41 734.65 7.57" fill="url(#a)"/><path d="M833.4 1250c0-230.11 186.49-416.7 416.6-416.7s416.7 186.59 416.7 416.7-186.59 416.7-416.7 416.7-416.6-186.59-416.6-416.7m-225.26 0c0 354.5 287.36 641.86 641.86 641.86s641.86-287.36 641.86-641.86S1604.5 608.14 1250 608.14 608.14 895.5 608.14 1250m1159.13-667.31a150 150 0 1 0 150.06-149.94h-.06a150.07 150.07 0 0 0-150 149.94M745 2267.47c-121.87-5.55-188.11-25.85-232.13-43-58.36-22.72-100-49.78-143.78-93.5s-70.88-85.32-93.5-143.68c-17.16-44-37.46-110.26-43-232.13-6.06-131.76-7.27-171.34-7.27-505.15s1.31-373.28 7.27-505.15c5.55-121.87 26-188 43-232.13 22.72-58.36 49.78-100 93.5-143.78s85.32-70.88 143.78-93.5c44-17.16 110.26-37.46 232.13-43 131.76-6.06 171.34-7.27 505-7.27s373.28 1.31 505.15 7.27c121.87 5.55 188 26 232.13 43 58.36 22.62 100 49.78 143.78 93.5s70.78 85.42 93.5 143.78c17.16 44 37.46 110.26 43 232.13 6.06 131.87 7.27 171.34 7.27 505.15s-1.21 373.28-7.27 505.15c-5.55 121.87-25.95 188.11-43 232.13-22.72 58.36-49.78 100-93.5 143.68s-85.42 70.78-143.78 93.5c-44 17.16-110.26 37.46-232.13 43-131.76 6.06-171.34 7.27-505.15 7.27s-373.28-1.21-505-7.27M734.65 7.57c-133.07 6.06-224 27.16-303.41 58.06C349 97.54 279.38 140.35 209.81 209.81S97.54 349 65.63 431.24c-30.9 79.46-52 170.34-58.06 303.41C1.41 867.93 0 910.54 0 1250s1.41 382.07 7.57 515.35c6.06 133.08 27.16 223.95 58.06 303.41 31.91 82.19 74.62 152 144.18 221.43S349 2402.37 431.24 2434.37c79.56 30.9 170.34 52 303.41 58.06C868 2498.49 910.54 2500 1250 2500s382.07-1.41 515.35-7.57c133.08-6.06 223.95-27.16 303.41-58.06 82.19-32 151.86-74.72 221.43-144.18s112.18-139.24 144.18-221.43c30.9-79.46 52.1-170.34 58.06-303.41 6.06-133.38 7.47-175.89 7.47-515.35s-1.41-382.07-7.47-515.35c-6.06-133.08-27.16-224-58.06-303.41-32-82.19-74.72-151.86-144.18-221.43S2150.95 97.54 2068.86 65.63c-79.56-30.9-170.44-52.1-303.41-58.06C1632.17 1.51 1589.56 0 1250.1 0S868 1.41 734.65 7.57" fill="url(#b)"/></symbol><symbol id="linkedin" viewBox="0 0 513 504">
    <title>linkedin-social-media-svgrepo-com</title>
    <g id="Page-1" stroke="none" stroke-width="1" fill="none" fill-rule="evenodd">
        <g id="linkedin-social-media-svgrepo-com" transform="translate(-0.000154, 0.424000)" fill="#007AAA" fill-rule="nonzero">
            <path d="M61.8131536,1.42108547e-14 C95.3581536,1.42108547e-14 123.606154,28.248 123.606154,61.793 C123.606154,97.103 93.5921536,124.469 61.8131536,123.586 C29.1511536,124.469 0.0201536268,97.103 0.0201536268,61.793 C-0.862846373,27.365 27.3861536,1.42108547e-14 61.8131536,1.42108547e-14" id="Path"/>
            <path d="M96.2411536,503.172 L25.6201536,503.172 C15.9101536,503.172 7.96515363,495.227 7.96515363,485.517 L7.96515363,176.552 C7.96515363,166.842 15.0271536,158.897 24.7371536,158.897 L96.2401536,158.897 C105.950154,158.897 113.895154,166.842 113.895154,176.552 L113.895154,486.4 C113.895154,495.227 105.951154,503.172 96.2411536,503.172" id="Path"/>
            <path d="M511.137154,266.593 C511.137154,201.269 462.585154,150.069 397.261154,150.069 L378.723154,150.069 C343.413154,150.069 308.985154,166.841 290.447154,194.207 C284.268154,200.386 281.619154,203.035 281.619154,203.035 L281.619154,167.725 C281.619154,164.194 276.322154,158.897 272.791154,158.897 L184.515154,158.897 C180.984154,158.897 175.687154,162.428 175.687154,166.842 L175.687154,496.111 C175.687154,499.642 180.984154,503.173 184.515154,503.173 L281.618154,503.173 C285.149154,503.173 290.446154,499.642 290.446154,496.111 L290.446154,305.434 C290.446154,272.772 315.163154,245.406 347.825154,244.524 C364.597154,244.524 379.604154,250.703 391.080154,262.179 C401.673154,272.772 406.087154,287.779 406.087154,304.551 L406.087154,494.344 C406.087154,497.875 411.384154,503.173 414.915154,503.173 L503.191154,503.173 C506.722154,503.173 512.019154,497.875 512.019154,494.344 L512.019154,266.593 L511.137154,266.593 Z" id="Path"/>
        </g>
    </g>
</symbol><symbol id="pinterest" viewBox="0 0 404 512">
    <title>pinterest-svgrepo-com</title>
    <g id="Page-1" stroke="none" stroke-width="1" fill="none" fill-rule="evenodd">
        <g id="pinterest-svgrepo-com" transform="translate(0.793000, 0.000000)" fill="#D7143A" fill-rule="nonzero">
            <path d="M350.224,52.467 C314.981,18.634 266.208,0 212.891,0 C131.447,0 81.355,33.385 53.675,61.39 C19.561,95.903 2.84217094e-14,141.73 2.84217094e-14,187.122 C2.84217094e-14,244.115 23.839,287.859 63.76,304.133 C66.44,305.231 69.137,305.784 71.781,305.784 C80.203,305.784 86.876,300.273 89.188,291.434 C90.536,286.363 93.658,273.852 95.016,268.421 C97.922,257.696 95.574,252.537 89.236,245.068 C77.69,231.406 72.313,215.251 72.313,194.226 C72.313,131.775 118.815,65.403 205.002,65.403 C273.388,65.403 315.868,104.271 315.868,166.837 C315.868,206.319 307.364,242.883 291.917,269.798 C281.183,288.5 262.308,310.793 233.332,310.793 C220.802,310.793 209.546,305.646 202.444,296.672 C195.735,288.189 193.523,277.231 196.222,265.81 C199.27,252.906 203.427,239.446 207.45,226.434 C214.787,202.668 221.723,180.221 221.723,162.312 C221.723,131.68 202.891,111.097 174.866,111.097 C139.25,111.097 111.347,147.271 111.347,193.451 C111.347,216.099 117.366,233.039 120.091,239.543 C115.604,258.553 88.938,371.573 83.88,392.885 C80.955,405.326 63.337,503.59 92.498,511.425 C125.262,520.228 154.549,424.526 157.53,413.712 C159.946,404.917 168.399,371.66 173.579,351.217 C189.396,366.452 214.863,376.752 239.643,376.752 C286.358,376.752 328.37,355.73 357.941,317.563 C386.62,280.543 402.415,228.945 402.415,172.281 C402.415,127.983 383.389,84.311 350.224,52.467 Z" id="Path"/>
        </g>
    </g>
</symbol><symbol id="snapchat" viewBox="0 0 393 364">
    <title>snapchat</title>
    <g id="Page-1" stroke="none" stroke-width="1" fill="none" fill-rule="evenodd">
        <g id="snapchat" transform="translate(0.000133, 0.531987)" fill-rule="nonzero">
            <path d="M376.503867,271.543013 C330.103867,244.143013 315.203867,229.843013 313.703867,228.243013 C304.803867,219.343013 301.103867,210.543013 302.903867,201.943013 C305.203867,189.843013 320.203867,179.343013 333.203867,174.543013 C338.403867,173.343013 342.303867,168.543013 342.303867,163.243013 L342.303867,157.543013 L339.403867,154.643013 C338.203867,153.443013 334.703867,149.943013 328.803867,149.943013 C327.503867,149.943013 326.103867,150.143013 324.803867,150.543013 C319.303867,151.943013 314.603867,152.543013 310.703867,152.543013 C308.203867,152.543013 306.003867,151.543013 303.803867,149.443013 C302.603867,147.843013 300.803867,144.643013 300.703867,140.443013 C304.103867,92.0430126 294.503867,56.2430126 272.303867,33.9430126 C246.703867,7.34301265 211.303867,5.24301265 201.103867,5.24301265 L195.503867,5.24301265 C177.803867,5.24301265 144.403867,8.94301265 120.403867,33.7430126 C98.0038672,56.1430126 88.4038672,92.1430126 91.9038672,140.743013 L91.9038672,141.043013 L91.9038672,141.343013 C92.3038672,143.843013 91.7038672,145.443013 89.9038672,147.243013 L89.5038672,147.643013 L89.2038672,148.043013 C88.0038672,149.643013 85.2038672,150.643013 82.6038672,150.643013 C78.7038672,150.643013 74.0038672,149.943013 68.5038672,148.643013 C67.2038672,148.243013 65.9038672,148.043013 64.5038672,148.043013 C58.7038672,148.043013 55.1038672,151.643013 53.9038672,152.743013 L51.0038672,155.643013 L51.0038672,161.343013 C51.0038672,166.643013 54.6038672,171.243013 59.7038672,172.543013 C66.4038672,175.343013 86.6038672,184.843013 90.4038672,200.243013 C92.0038672,208.743013 88.2038672,217.343013 78.9038672,226.043013 L78.7038672,226.243013 C77.2038672,227.743013 62.3038672,242.143013 15.9038672,269.543013 L1.9038672,277.843013 L15.7038672,286.643013 C21.6038672,290.343013 37.1038672,298.943013 57.0038672,299.343013 L61.6038672,329.443013 L72.0038672,327.143013 C77.4038672,325.943013 88.6038672,323.443013 95.9038672,323.343013 C117.703867,324.843013 131.503867,331.043013 149.603867,341.943013 C158.603867,347.143013 178.803867,355.843013 194.803867,356.843013 L195.103867,356.843013 L204.203867,356.843013 L205.003867,356.743013 C216.203867,355.043013 231.103867,349.143013 243.103867,341.843013 C260.103867,331.443013 274.003867,324.043013 296.503867,323.343013 C304.103867,323.343013 313.403867,324.743013 319.603867,326.843013 L330.703867,330.543013 L335.603867,300.943013 C351.203867,300.543013 366.303867,294.043013 376.303867,288.543013 L391.803867,280.143013 L376.503867,271.543013 Z" id="Path" fill="#FF9900"/>
            <path d="M197.003867,330.543013 C188.203867,329.743013 172.203867,324.143013 164.203867,319.343013 C145.003867,308.143013 127.403867,298.543013 98.6038672,297.743013 C97.8038672,297.743013 97.0038672,297.743013 96.2038672,297.743013 C93.0038672,297.743013 89.0038672,297.743013 85.0038672,298.543013 L84.2038672,294.543013 C82.6038672,283.343013 73.0038672,274.543013 61.0038672,274.543013 C86.6038672,257.743013 96.2038672,248.143013 98.6038672,245.743013 C118.603867,226.543013 119.403867,208.143013 117.003867,196.143013 C114.603867,186.543013 109.803867,178.543013 103.403867,171.343013 C105.803867,169.743013 107.403867,168.143013 109.003867,166.543013 C115.403867,159.343013 118.603867,149.743013 118.603867,140.143013 C115.403867,100.143013 122.603867,70.5430126 139.403867,52.9430126 C157.003867,34.5430126 182.603867,32.1430126 192.203867,32.1430126 C193.003867,32.1430126 197.003867,32.1430126 197.003867,32.1430126 C197.003867,32.1430126 198.603867,32.1430126 199.403867,32.1430126 C199.403867,32.1430126 200.203867,32.1430126 201.003867,32.1430126 C210.603867,32.1430126 236.203867,33.7430126 253.803867,52.9430126 C271.403867,70.5430126 277.803867,100.143013 274.603867,140.143013 C273.803867,149.743013 277.003867,159.343013 284.203867,166.543013 C285.803867,168.143013 287.403867,169.743013 289.803867,171.343013 C283.403867,177.743013 278.603867,185.743013 276.203867,196.143013 C273.803867,208.143013 274.603867,226.543013 294.603867,245.743013 L294.603867,245.743013 C297.003867,248.143013 307.403867,257.743013 332.203867,274.543013 C320.203867,275.343013 310.603867,283.343013 309.003867,295.343013 L308.203867,299.343013 C304.203867,298.543013 300.203867,298.543013 297.003867,298.543013 C296.203867,298.543013 295.403867,298.543013 294.603867,298.543013 C265.803867,299.343013 249.003867,308.943013 229.003867,320.143013 C218.603867,326.543013 208.203867,330.543013 201.003867,331.343013 L201.003867,331.343013 C201.003867,331.343013 199.403867,331.343013 198.603867,331.343013 C198.603867,330.543013 197.003867,330.543013 197.003867,330.543013 Z" id="Path" fill="#FFC600"/>
            <path d="M4.2038672,271.343013 C59.4038672,240.143013 76.2038672,223.343013 76.2038672,222.543013 C84.2038672,215.343013 87.4038672,208.143013 85.8038672,202.543013 C83.4038672,192.943013 70.6038672,183.343013 57.8038672,179.343013 C52.2038672,177.743013 48.2038672,173.743013 46.6038672,168.143013 C45.0038672,163.343013 45.0038672,157.743013 47.4038672,153.743013 C51.4038672,145.743013 61.0038672,141.743013 69.8038672,144.143013 C74.6038672,145.743013 79.4038672,145.743013 82.6038672,145.743013 L82.6038672,145.743013 C84.2038672,145.743013 85.0038672,144.943013 85.0038672,144.943013 C85.0038672,144.943013 85.8038672,144.143013 85.8038672,142.543013 C81.8038672,92.9430126 92.2038672,55.3430126 116.203867,30.5430126 C145.003867,0.943012646 184.203867,0.143012646 196.203867,0.143012646 C209.003867,-0.656987354 248.203867,0.943012646 276.203867,30.5430126 C300.203867,55.3430126 309.803867,92.9430126 306.603867,142.543013 C306.603867,143.343013 307.403867,144.143013 307.403867,144.943013 C308.203867,144.943013 309.003867,145.743013 309.803867,145.743013 L309.803867,145.743013 C313.803867,145.743013 317.803867,144.943013 322.603867,144.143013 C331.403867,141.743013 341.003867,145.743013 345.003867,153.743013 C347.403867,158.543013 347.403867,163.343013 345.803867,168.143013 C344.203867,172.943013 339.403867,176.943013 334.603867,179.343013 C322.603867,184.143013 309.003867,192.943013 306.603867,202.543013 C305.003867,208.943013 308.203867,215.343013 316.203867,222.543013 C316.203867,222.543013 333.803867,240.143013 388.203867,271.343013 C391.403867,272.943013 393.003867,276.943013 392.203867,280.943013 C390.603867,287.343013 365.003867,304.143013 338.603867,306.543013 L334.603867,329.743013 C334.603867,332.143013 333.003867,333.743013 330.603867,335.343013 C330.603867,336.143013 328.203867,336.143013 326.603867,335.343013 C320.203867,332.943013 305.803867,328.943013 297.003867,329.743013 C276.203867,330.543013 263.403867,336.943013 246.603867,347.343013 C237.803867,352.143013 217.803867,363.343013 201.003867,363.343013 C201.003867,363.343013 201.003867,363.343013 200.203867,363.343013 C199.403867,363.343013 200.203867,363.343013 199.403867,363.343013 C181.803867,363.343013 157.803867,353.743013 147.403867,347.343013 C130.603867,336.943013 117.803867,330.543013 97.0038672,329.743013 C88.2038672,329.743013 73.8038672,333.743013 67.4038672,335.343013 C65.0038672,336.143013 62.6038672,336.143013 61.0038672,334.543013 C58.6038672,332.943013 57.8038672,331.343013 57.0038672,328.943013 L53.0038672,305.743013 C26.6038672,304.143013 1.8038672,286.543013 0.203867197,280.143013 C-0.596132803,276.943013 1.0038672,272.943013 4.2038672,271.343013 Z M87.4038672,234.543013 C86.6038672,235.343013 71.4038672,250.543013 22.6038672,279.343013 C31.4038672,284.143013 45.0038672,290.543013 60.2038672,290.543013 L60.2038672,290.543013 C64.2038672,290.543013 67.4038672,293.743013 68.2038672,297.743013 L71.4038672,318.543013 C78.6038672,316.143013 89.0038672,314.543013 97.8038672,314.543013 C122.603867,315.343013 137.803867,323.343013 156.203867,334.543013 C165.803867,340.143013 184.203867,347.343013 197.003867,348.143013 C197.003867,348.143013 199.403867,348.143013 201.003867,348.143013 C202.603867,348.143013 205.003867,348.143013 205.003867,348.143013 C215.403867,347.343013 229.003867,340.943013 239.403867,334.543013 C257.803867,323.343013 272.203867,316.143013 297.803867,314.543013 C306.603867,314.543013 316.203867,316.943013 324.203867,318.543013 L327.403867,297.743013 C328.203867,293.743013 331.403867,290.543013 335.403867,290.543013 C350.603867,291.343013 364.203867,284.943013 373.003867,279.343013 C324.203867,250.543013 309.003867,235.343013 308.203867,234.543013 C296.203867,223.343013 291.403867,211.343013 294.603867,199.343013 C298.603867,182.543013 316.203867,170.543013 332.203867,164.143013 C333.003867,164.143013 333.803867,163.343013 333.803867,162.543013 C333.803867,161.743013 333.803867,161.743013 333.803867,160.943013 C333.003867,160.143013 331.403867,158.543013 329.003867,159.343013 C322.603867,160.943013 317.003867,161.743013 312.203867,161.743013 L312.203867,161.743013 C306.603867,161.743013 301.803867,159.343013 297.803867,155.343013 C293.803867,151.343013 292.203867,146.543013 293.003867,140.943013 C297.003867,96.1430126 288.203867,62.5430126 267.403867,41.7430126 C245.803867,19.3430126 216.203867,16.1430126 203.403867,16.1430126 C201.803867,16.1430126 201.003867,16.1430126 199.403867,16.1430126 L198.603867,16.1430126 C198.603867,16.1430126 198.603867,16.1430126 197.803867,16.1430126 C188.203867,15.3430126 153.803867,16.1430126 129.803867,41.7430126 C109.003867,62.5430126 101.003867,96.1430126 104.203867,140.943013 C104.203867,145.743013 102.603867,151.343013 99.4038672,155.343013 C95.4038672,159.343013 90.6038672,161.743013 85.0038672,161.743013 L85.0038672,161.743013 C80.2038672,161.743013 74.6038672,160.943013 68.2038672,159.343013 C66.6038672,158.543013 64.2038672,160.143013 63.4038672,160.943013 C63.4038672,161.743013 63.4038672,161.743013 63.4038672,162.543013 C63.4038672,163.343013 64.2038672,164.143013 65.0038672,164.143013 C81.0038672,169.743013 99.4038672,182.543013 102.603867,199.343013 C104.203867,211.343013 99.4038672,222.543013 87.4038672,234.543013 Z" id="Shape" fill="#42210B"/>
        </g>
    </g>
</symbol><symbol id="tiktok" viewBox="0 0 485 548">
    <title>tiktok-white-logo-svg</title>
    <g id="Page-1" stroke="none" stroke-width="1" fill="none" fill-rule="evenodd">
        <g id="tiktok-white-logo-svg" transform="translate(0.498072, 0.000000)" fill-rule="nonzero">
            <g id="Group" transform="translate(-0.000000, 0.000000)" fill="#51B4C3">
                <path d="M23.0219277,393.54 C29.3319277,433.73 43.4619277,463.43 61.1919277,485.39 C33.3119277,462.73 9.20192774,427.02 0.36192774,370.82 C0.36192774,370.82 -17.1780723,192.38 191.951928,193.85 L192.321928,217.12 C6.73192774,228.07 23.0219277,393.54 23.0219277,393.54 L23.0219277,393.54 Z" id="Path"/>
                <path d="M339.571928,22.72 L267.411928,22.72 L263.141928,398.41 C249.801928,456.91 190.711928,453.98 190.711928,453.98 C156.401928,454.44 138.401928,439.01 128.971928,422.52 C138.781928,428.02 151.531928,431.48 168.051928,431.26 C168.051928,431.26 227.141928,434.18 240.501928,375.69 L244.751928,0 L335.751928,0 C335.751928,0 336.391928,9.2 339.571928,22.72 L339.571928,22.72 Z M461.841928,129.99 L461.841928,150.83 C428.321928,145.24 405.581928,127.8 390.191928,107.53 C407.821928,120.77 431.111928,129.81 461.841928,129.99 L461.841928,129.99 Z" id="Shape"/>
            </g>
            <g id="Group" transform="translate(61.201928, 22.720000)" fill="#D44E61">
                <path d="M154.86,287.94 C154.86,287.94 59.31,276.24 57.36,361.06 C57.36,361.06 57.09,381.13 67.78,399.81 C34.13,380.99 34.7193228,338.34 34.7193228,338.34 C36.67,253.52 132.21,265.22 132.21,265.22 L131.12,194.4 C138.25,194 145.66,193.81 153.39,193.86 L154.86,287.94 Z M328.99,84.8 C297.4,61.06 283.96,23.82 278.37,2.84217094e-14 L297.19,2.84217094e-14 C297.2,2.84217094e-14 300.52,47.27 328.99,84.8 Z" id="Shape"/>
                <path d="M423.3,129.99 L423.3,219.69 C423.3,219.69 359.61,220.98 297.2,177.44 L295.91,365.29 C295.91,365.29 293.8,511.21 143.17,524.37 C143.17,524.37 54.55,530.19 -5.68434189e-14,462.66 C53.37,506.06 120.51,501.65 120.51,501.65 C271.14,488.48 273.25,342.57 273.25,342.57 L274.56,154.72 C336.96,198.26 400.65,196.97 400.65,196.97 L400.65,128.1 C407.7,129.29 415.25,129.94 423.3,129.99 Z" id="Path"/>
            </g>
        </g>
    </g>
</symbol><symbol id="twitter" viewBox="117.806 161.288 464.388 377.424"><path d="m582.194 205.976c-17.078 7.567-35.424 12.68-54.71 14.991 19.675-11.78 34.769-30.474 41.886-52.726-18.407 10.922-38.798 18.857-60.497 23.111-17.385-18.488-42.132-30.064-69.538-30.064-52.603 0-95.266 42.663-95.266 95.307a97.3 97.3 0 0 0 2.454 21.68c-79.211-3.989-149.383-41.928-196.382-99.562-8.18 14.112-12.885 30.474-12.885 47.899 0 33.05 16.833 62.236 42.377 79.314a95.051 95.051 0 0 1 -43.154-11.924v1.227c0 46.16 32.826 84.672 76.43 93.426a95.97 95.97 0 0 1 -25.095 3.313 95.929 95.929 0 0 1 -17.936-1.677c12.128 37.836 47.306 65.406 89.008 66.142-32.622 25.565-73.71 40.802-118.337 40.802-7.69 0-15.278-.45-22.743-1.33 42.173 27.06 92.24 42.807 146.029 42.807 175.275 0 271.094-145.17 271.094-271.073 0-4.09-.103-8.222-.287-12.312 18.612-13.458 34.769-30.208 47.51-49.29z" fill="#1da1f2"/></symbol><symbol id="vimeo" viewBox="0 0 256 223">
    <title>vimeo</title>
    <g id="Page-1" stroke="none" stroke-width="1" fill="none" fill-rule="evenodd">
        <g id="vimeo" transform="translate(0.000000, 0.333902)" fill="#32B8E8" fill-rule="nonzero">
            <path d="M255.876213,51.3285833 C254.737006,76.2964246 237.331453,110.485445 203.667236,153.877725 C168.861251,199.205378 139.413381,221.866645 115.323625,221.866645 C100.406409,221.866645 87.772727,208.068155 77.4609804,180.460937 C70.5694159,155.155174 63.6855314,129.85197 56.7965269,104.546207 C49.1343974,76.9543488 40.9193043,63.1404996 32.1358876,63.1404996 C30.2209952,63.1404996 23.5188719,67.1776457 12.0448778,75.2212176 L0,59.6742372 C12.6336816,48.5509653 25.0984021,37.4302535 37.3608813,26.2941815 C54.2109102,11.7046473 66.8599519,4.03227777 75.2900864,3.25659276 C95.2146951,1.33914037 107.477174,14.9840285 112.080084,44.1938172 C117.054196,75.7076208 120.494858,95.3096674 122.430231,102.982037 C128.172348,129.127486 134.490469,142.18357 141.394833,142.18357 C146.752948,142.18357 154.80164,133.704795 165.533229,116.747246 C176.254579,99.7845763 181.996696,86.8795329 182.772381,78.0141957 C184.298151,63.3760211 178.553473,56.0390137 165.533229,56.0390137 C159.40455,56.0390137 153.086429,57.4521428 146.586547,60.2451209 C159.166468,18.9546141 183.205023,-1.09799538 218.686853,0.0463320156 C244.991023,0.819457007 257.391743,17.9126874 255.876213,51.3285833" id="Path"/>
        </g>
    </g>
</symbol><symbol id="whatsapp" viewBox="0 0 512 512">
    <title>whatsapp</title>
    <g id="Page-1" stroke="none" stroke-width="1" fill="none" fill-rule="evenodd">
        <g id="whatsapp" transform="translate(-0.000193, 0.000000)" fill="#8DC63F" fill-rule="nonzero">
            <path d="M378.853193,294.202 C377.856193,293.723 340.529193,275.343 333.897193,272.956 C331.189193,271.984 328.288193,271.034 325.203193,271.034 C320.163193,271.034 315.929193,273.546 312.631193,278.48 C308.902193,284.022 297.615193,297.216 294.128193,301.158 C293.672193,301.678 293.051193,302.3 292.678193,302.3 C292.344193,302.3 286.567193,299.921 284.818193,299.162 C244.777193,281.769 214.385193,239.943 210.217193,232.89 C209.622193,231.876 209.597193,231.416 209.592193,231.416 C209.738193,230.879 211.085193,229.529 211.780193,228.833 C213.813193,226.822 216.016193,224.17 218.147193,221.605 C219.156193,220.39 220.167193,219.173 221.159193,218.026 C224.251193,214.429 225.627193,211.636 227.223193,208.401 L228.059193,206.72 C231.956193,198.978 228.628193,192.446 227.552193,190.336 C226.669193,188.571 210.909193,150.533 209.233193,146.537 C205.203193,136.894 199.879193,132.404 192.480193,132.404 C191.793193,132.404 192.480193,132.404 189.601193,132.525 C186.095193,132.673 167.003193,135.186 158.562193,140.508 C149.610193,146.152 134.466193,164.141 134.466193,195.779 C134.466193,224.253 152.536193,251.138 160.294193,261.363 C160.487193,261.621 160.841193,262.144 161.355193,262.896 C191.066193,306.286 228.105193,338.443 265.652193,353.442 C301.800193,367.881 318.917193,369.55 328.648193,369.55 C328.650193,369.55 328.650193,369.55 328.650193,369.55 C332.739193,369.55 336.012193,369.229 338.900193,368.945 L340.732193,368.77 C353.219193,367.663 380.661193,353.443 386.903193,336.097 C391.820193,322.434 393.117193,307.506 389.845193,302.089 C387.604193,298.403 383.742193,296.549 378.853193,294.202 Z" id="Path"/>
            <path d="M260.545193,0 C121.879193,0 9.06619325,111.965 9.06619325,249.588 C9.06619325,294.1 20.9781933,337.672 43.5451933,375.806 L0.35219325,503.216 C-0.45280675,505.591 0.14619325,508.218 1.90319325,510.007 C3.17219325,511.302 4.89219325,512 6.64919325,512 C7.32219325,512 8.00019325,511.899 8.66219325,511.687 L141.516193,469.47 C177.871193,488.894 218.961193,499.148 260.546193,499.148 C399.199193,499.15 512.000193,387.197 512.000193,249.588 C512.000193,111.965 399.199193,0 260.545193,0 Z M260.545193,447.159 C221.415193,447.159 183.516193,435.86 150.937193,414.482 C149.842193,413.762 148.570193,413.393 147.290193,413.393 C146.613193,413.393 145.935193,413.496 145.275193,413.706 L78.7231933,434.861 L100.207193,371.478 C100.902193,369.427 100.554193,367.164 99.2741933,365.415 C74.4651933,331.517 61.3511933,291.466 61.3511933,249.588 C61.3511933,140.633 150.708193,51.991 260.542193,51.991 C370.363193,51.991 459.710193,140.633 459.710193,249.588 C459.710193,358.53 370.367193,447.159 260.545193,447.159 Z" id="Shape"/>
        </g>
    </g>
</symbol><symbol id="xing" viewBox="426.896 102.499 170.207 200"><path d="M442.394 142c-1.736 0-3.197.61-3.934 1.803-.76 1.231-.645 2.818.166 4.424l19.503 33.761c.033.064.033.105 0 .164l-30.648 54.084c-.799 1.592-.76 3.191 0 4.425.736 1.187 2.033 1.966 3.771 1.966h28.844c4.312 0 6.393-2.91 7.867-5.57 0 0 29.973-53.01 31.14-55.068-.118-.19-19.83-34.58-19.83-34.58-1.439-2.557-3.606-5.41-8.03-5.41h-28.849z" fill="#005a5f"/><path d="M563.574 102.501c-4.309 0-6.176 2.714-7.723 5.494 0 0-62.14 110.2-64.188 113.818.105.196 40.984 75.191 40.984 75.191 1.432 2.558 3.641 5.494 8.06 5.494h28.81c1.738 0 3.096-.654 3.828-1.843.77-1.23.748-2.857-.059-4.458l-40.664-74.295a.167.167 0 0 1 0-.189l63.863-112.92c.803-1.594.82-3.22.061-4.452-.736-1.188-2.098-1.843-3.836-1.843h-29.139v.002h.003z" fill="#d4d600"/></symbol><symbol id="youtube"><path d="m154 17.5c-1.82-6.73-7.07-12-13.8-13.8-9.04-3.49-96.6-5.2-122 0.1-6.73 1.82-12 7.07-13.8 13.8-4.08 17.9-4.39 56.6 0.1 74.9 1.82 6.73 7.07 12 13.8 13.8 17.9 4.12 103 4.7 122 0 6.73-1.82 12-7.07 13.8-13.8 4.35-19.5 4.66-55.8-0.1-75z" fill="#f00"/><path d="m105 55-40.8-23.4v46.8z" fill="#fff"/></symbol></svg>