<?xml version="1.0" encoding="UTF-8"?>
<svg width="513px" height="504px" viewBox="0 0 513 504" version="1.1" xmlns="http://www.w3.org/2000/svg" xmlns:xlink="http://www.w3.org/1999/xlink">
    <title>linkedin-social-media-svgrepo-com</title>
    <g id="Page-1" stroke="none" stroke-width="1" fill="none" fill-rule="evenodd">
        <g id="linkedin-social-media-svgrepo-com" transform="translate(-0.000154, 0.424000)" fill="#007AAA" fill-rule="nonzero">
            <path d="M61.8131536,1.42108547e-14 C95.3581536,1.42108547e-14 123.606154,28.248 123.606154,61.793 C123.606154,97.103 93.5921536,124.469 61.8131536,123.586 C29.1511536,124.469 0.0201536268,97.103 0.0201536268,61.793 C-0.862846373,27.365 27.3861536,1.42108547e-14 61.8131536,1.42108547e-14" id="Path"></path>
            <path d="M96.2411536,503.172 L25.6201536,503.172 C15.9101536,503.172 7.96515363,495.227 7.96515363,485.517 L7.96515363,176.552 C7.96515363,166.842 15.0271536,158.897 24.7371536,158.897 L96.2401536,158.897 C105.950154,158.897 113.895154,166.842 113.895154,176.552 L113.895154,486.4 C113.895154,495.227 105.951154,503.172 96.2411536,503.172" id="Path"></path>
            <path d="M511.137154,266.593 C511.137154,201.269 462.585154,150.069 397.261154,150.069 L378.723154,150.069 C343.413154,150.069 308.985154,166.841 290.447154,194.207 C284.268154,200.386 281.619154,203.035 281.619154,203.035 L281.619154,167.725 C281.619154,164.194 276.322154,158.897 272.791154,158.897 L184.515154,158.897 C180.984154,158.897 175.687154,162.428 175.687154,166.842 L175.687154,496.111 C175.687154,499.642 180.984154,503.173 184.515154,503.173 L281.618154,503.173 C285.149154,503.173 290.446154,499.642 290.446154,496.111 L290.446154,305.434 C290.446154,272.772 315.163154,245.406 347.825154,244.524 C364.597154,244.524 379.604154,250.703 391.080154,262.179 C401.673154,272.772 406.087154,287.779 406.087154,304.551 L406.087154,494.344 C406.087154,497.875 411.384154,503.173 414.915154,503.173 L503.191154,503.173 C506.722154,503.173 512.019154,497.875 512.019154,494.344 L512.019154,266.593 L511.137154,266.593 Z" id="Path"></path>
        </g>
    </g>
</svg>