<?xml version="1.0" encoding="UTF-8"?>
<svg width="404px" height="512px" viewBox="0 0 404 512" version="1.1" xmlns="http://www.w3.org/2000/svg" xmlns:xlink="http://www.w3.org/1999/xlink">
    <title>pinterest-svgrepo-com</title>
    <g id="Page-1" stroke="none" stroke-width="1" fill="none" fill-rule="evenodd">
        <g id="pinterest-svgrepo-com" transform="translate(0.793000, 0.000000)" fill="#D7143A" fill-rule="nonzero">
            <path d="M350.224,52.467 C314.981,18.634 266.208,0 212.891,0 C131.447,0 81.355,33.385 53.675,61.39 C19.561,95.903 2.84217094e-14,141.73 2.84217094e-14,187.122 C2.84217094e-14,244.115 23.839,287.859 63.76,304.133 C66.44,305.231 69.137,305.784 71.781,305.784 C80.203,305.784 86.876,300.273 89.188,291.434 C90.536,286.363 93.658,273.852 95.016,268.421 C97.922,257.696 95.574,252.537 89.236,245.068 C77.69,231.406 72.313,215.251 72.313,194.226 C72.313,131.775 118.815,65.403 205.002,65.403 C273.388,65.403 315.868,104.271 315.868,166.837 C315.868,206.319 307.364,242.883 291.917,269.798 C281.183,288.5 262.308,310.793 233.332,310.793 C220.802,310.793 209.546,305.646 202.444,296.672 C195.735,288.189 193.523,277.231 196.222,265.81 C199.27,252.906 203.427,239.446 207.45,226.434 C214.787,202.668 221.723,180.221 221.723,162.312 C221.723,131.68 202.891,111.097 174.866,111.097 C139.25,111.097 111.347,147.271 111.347,193.451 C111.347,216.099 117.366,233.039 120.091,239.543 C115.604,258.553 88.938,371.573 83.88,392.885 C80.955,405.326 63.337,503.59 92.498,511.425 C125.262,520.228 154.549,424.526 157.53,413.712 C159.946,404.917 168.399,371.66 173.579,351.217 C189.396,366.452 214.863,376.752 239.643,376.752 C286.358,376.752 328.37,355.73 357.941,317.563 C386.62,280.543 402.415,228.945 402.415,172.281 C402.415,127.983 383.389,84.311 350.224,52.467 Z" id="Path"></path>
        </g>
    </g>
</svg>