<?xml version="1.0" encoding="UTF-8"?>
<svg width="393px" height="364px" viewBox="0 0 393 364" version="1.1" xmlns="http://www.w3.org/2000/svg" xmlns:xlink="http://www.w3.org/1999/xlink">
    <title>snapchat</title>
    <g id="Page-1" stroke="none" stroke-width="1" fill="none" fill-rule="evenodd">
        <g id="snapchat" transform="translate(0.000133, 0.531987)" fill-rule="nonzero">
            <path d="M376.503867,271.543013 C330.103867,244.143013 315.203867,229.843013 313.703867,228.243013 C304.803867,219.343013 301.103867,210.543013 302.903867,201.943013 C305.203867,189.843013 320.203867,179.343013 333.203867,174.543013 C338.403867,173.343013 342.303867,168.543013 342.303867,163.243013 L342.303867,157.543013 L339.403867,154.643013 C338.203867,153.443013 334.703867,149.943013 328.803867,149.943013 C327.503867,149.943013 326.103867,150.143013 324.803867,150.543013 C319.303867,151.943013 314.603867,152.543013 310.703867,152.543013 C308.203867,152.543013 306.003867,151.543013 303.803867,149.443013 C302.603867,147.843013 300.803867,144.643013 300.703867,140.443013 C304.103867,92.0430126 294.503867,56.2430126 272.303867,33.9430126 C246.703867,7.34301265 211.303867,5.24301265 201.103867,5.24301265 L195.503867,5.24301265 C177.803867,5.24301265 144.403867,8.94301265 120.403867,33.7430126 C98.0038672,56.1430126 88.4038672,92.1430126 91.9038672,140.743013 L91.9038672,141.043013 L91.9038672,141.343013 C92.3038672,143.843013 91.7038672,145.443013 89.9038672,147.243013 L89.5038672,147.643013 L89.2038672,148.043013 C88.0038672,149.643013 85.2038672,150.643013 82.6038672,150.643013 C78.7038672,150.643013 74.0038672,149.943013 68.5038672,148.643013 C67.2038672,148.243013 65.9038672,148.043013 64.5038672,148.043013 C58.7038672,148.043013 55.1038672,151.643013 53.9038672,152.743013 L51.0038672,155.643013 L51.0038672,161.343013 C51.0038672,166.643013 54.6038672,171.243013 59.7038672,172.543013 C66.4038672,175.343013 86.6038672,184.843013 90.4038672,200.243013 C92.0038672,208.743013 88.2038672,217.343013 78.9038672,226.043013 L78.7038672,226.243013 C77.2038672,227.743013 62.3038672,242.143013 15.9038672,269.543013 L1.9038672,277.843013 L15.7038672,286.643013 C21.6038672,290.343013 37.1038672,298.943013 57.0038672,299.343013 L61.6038672,329.443013 L72.0038672,327.143013 C77.4038672,325.943013 88.6038672,323.443013 95.9038672,323.343013 C117.703867,324.843013 131.503867,331.043013 149.603867,341.943013 C158.603867,347.143013 178.803867,355.843013 194.803867,356.843013 L195.103867,356.843013 L204.203867,356.843013 L205.003867,356.743013 C216.203867,355.043013 231.103867,349.143013 243.103867,341.843013 C260.103867,331.443013 274.003867,324.043013 296.503867,323.343013 C304.103867,323.343013 313.403867,324.743013 319.603867,326.843013 L330.703867,330.543013 L335.603867,300.943013 C351.203867,300.543013 366.303867,294.043013 376.303867,288.543013 L391.803867,280.143013 L376.503867,271.543013 Z" id="Path" fill="#FF9900"></path>
            <path d="M197.003867,330.543013 C188.203867,329.743013 172.203867,324.143013 164.203867,319.343013 C145.003867,308.143013 127.403867,298.543013 98.6038672,297.743013 C97.8038672,297.743013 97.0038672,297.743013 96.2038672,297.743013 C93.0038672,297.743013 89.0038672,297.743013 85.0038672,298.543013 L84.2038672,294.543013 C82.6038672,283.343013 73.0038672,274.543013 61.0038672,274.543013 C86.6038672,257.743013 96.2038672,248.143013 98.6038672,245.743013 C118.603867,226.543013 119.403867,208.143013 117.003867,196.143013 C114.603867,186.543013 109.803867,178.543013 103.403867,171.343013 C105.803867,169.743013 107.403867,168.143013 109.003867,166.543013 C115.403867,159.343013 118.603867,149.743013 118.603867,140.143013 C115.403867,100.143013 122.603867,70.5430126 139.403867,52.9430126 C157.003867,34.5430126 182.603867,32.1430126 192.203867,32.1430126 C193.003867,32.1430126 197.003867,32.1430126 197.003867,32.1430126 C197.003867,32.1430126 198.603867,32.1430126 199.403867,32.1430126 C199.403867,32.1430126 200.203867,32.1430126 201.003867,32.1430126 C210.603867,32.1430126 236.203867,33.7430126 253.803867,52.9430126 C271.403867,70.5430126 277.803867,100.143013 274.603867,140.143013 C273.803867,149.743013 277.003867,159.343013 284.203867,166.543013 C285.803867,168.143013 287.403867,169.743013 289.803867,171.343013 C283.403867,177.743013 278.603867,185.743013 276.203867,196.143013 C273.803867,208.143013 274.603867,226.543013 294.603867,245.743013 L294.603867,245.743013 C297.003867,248.143013 307.403867,257.743013 332.203867,274.543013 C320.203867,275.343013 310.603867,283.343013 309.003867,295.343013 L308.203867,299.343013 C304.203867,298.543013 300.203867,298.543013 297.003867,298.543013 C296.203867,298.543013 295.403867,298.543013 294.603867,298.543013 C265.803867,299.343013 249.003867,308.943013 229.003867,320.143013 C218.603867,326.543013 208.203867,330.543013 201.003867,331.343013 L201.003867,331.343013 C201.003867,331.343013 199.403867,331.343013 198.603867,331.343013 C198.603867,330.543013 197.003867,330.543013 197.003867,330.543013 Z" id="Path" fill="#FFC600"></path>
            <path d="M4.2038672,271.343013 C59.4038672,240.143013 76.2038672,223.343013 76.2038672,222.543013 C84.2038672,215.343013 87.4038672,208.143013 85.8038672,202.543013 C83.4038672,192.943013 70.6038672,183.343013 57.8038672,179.343013 C52.2038672,177.743013 48.2038672,173.743013 46.6038672,168.143013 C45.0038672,163.343013 45.0038672,157.743013 47.4038672,153.743013 C51.4038672,145.743013 61.0038672,141.743013 69.8038672,144.143013 C74.6038672,145.743013 79.4038672,145.743013 82.6038672,145.743013 L82.6038672,145.743013 C84.2038672,145.743013 85.0038672,144.943013 85.0038672,144.943013 C85.0038672,144.943013 85.8038672,144.143013 85.8038672,142.543013 C81.8038672,92.9430126 92.2038672,55.3430126 116.203867,30.5430126 C145.003867,0.943012646 184.203867,0.143012646 196.203867,0.143012646 C209.003867,-0.656987354 248.203867,0.943012646 276.203867,30.5430126 C300.203867,55.3430126 309.803867,92.9430126 306.603867,142.543013 C306.603867,143.343013 307.403867,144.143013 307.403867,144.943013 C308.203867,144.943013 309.003867,145.743013 309.803867,145.743013 L309.803867,145.743013 C313.803867,145.743013 317.803867,144.943013 322.603867,144.143013 C331.403867,141.743013 341.003867,145.743013 345.003867,153.743013 C347.403867,158.543013 347.403867,163.343013 345.803867,168.143013 C344.203867,172.943013 339.403867,176.943013 334.603867,179.343013 C322.603867,184.143013 309.003867,192.943013 306.603867,202.543013 C305.003867,208.943013 308.203867,215.343013 316.203867,222.543013 C316.203867,222.543013 333.803867,240.143013 388.203867,271.343013 C391.403867,272.943013 393.003867,276.943013 392.203867,280.943013 C390.603867,287.343013 365.003867,304.143013 338.603867,306.543013 L334.603867,329.743013 C334.603867,332.143013 333.003867,333.743013 330.603867,335.343013 C330.603867,336.143013 328.203867,336.143013 326.603867,335.343013 C320.203867,332.943013 305.803867,328.943013 297.003867,329.743013 C276.203867,330.543013 263.403867,336.943013 246.603867,347.343013 C237.803867,352.143013 217.803867,363.343013 201.003867,363.343013 C201.003867,363.343013 201.003867,363.343013 200.203867,363.343013 C199.403867,363.343013 200.203867,363.343013 199.403867,363.343013 C181.803867,363.343013 157.803867,353.743013 147.403867,347.343013 C130.603867,336.943013 117.803867,330.543013 97.0038672,329.743013 C88.2038672,329.743013 73.8038672,333.743013 67.4038672,335.343013 C65.0038672,336.143013 62.6038672,336.143013 61.0038672,334.543013 C58.6038672,332.943013 57.8038672,331.343013 57.0038672,328.943013 L53.0038672,305.743013 C26.6038672,304.143013 1.8038672,286.543013 0.203867197,280.143013 C-0.596132803,276.943013 1.0038672,272.943013 4.2038672,271.343013 Z M87.4038672,234.543013 C86.6038672,235.343013 71.4038672,250.543013 22.6038672,279.343013 C31.4038672,284.143013 45.0038672,290.543013 60.2038672,290.543013 L60.2038672,290.543013 C64.2038672,290.543013 67.4038672,293.743013 68.2038672,297.743013 L71.4038672,318.543013 C78.6038672,316.143013 89.0038672,314.543013 97.8038672,314.543013 C122.603867,315.343013 137.803867,323.343013 156.203867,334.543013 C165.803867,340.143013 184.203867,347.343013 197.003867,348.143013 C197.003867,348.143013 199.403867,348.143013 201.003867,348.143013 C202.603867,348.143013 205.003867,348.143013 205.003867,348.143013 C215.403867,347.343013 229.003867,340.943013 239.403867,334.543013 C257.803867,323.343013 272.203867,316.143013 297.803867,314.543013 C306.603867,314.543013 316.203867,316.943013 324.203867,318.543013 L327.403867,297.743013 C328.203867,293.743013 331.403867,290.543013 335.403867,290.543013 C350.603867,291.343013 364.203867,284.943013 373.003867,279.343013 C324.203867,250.543013 309.003867,235.343013 308.203867,234.543013 C296.203867,223.343013 291.403867,211.343013 294.603867,199.343013 C298.603867,182.543013 316.203867,170.543013 332.203867,164.143013 C333.003867,164.143013 333.803867,163.343013 333.803867,162.543013 C333.803867,161.743013 333.803867,161.743013 333.803867,160.943013 C333.003867,160.143013 331.403867,158.543013 329.003867,159.343013 C322.603867,160.943013 317.003867,161.743013 312.203867,161.743013 L312.203867,161.743013 C306.603867,161.743013 301.803867,159.343013 297.803867,155.343013 C293.803867,151.343013 292.203867,146.543013 293.003867,140.943013 C297.003867,96.1430126 288.203867,62.5430126 267.403867,41.7430126 C245.803867,19.3430126 216.203867,16.1430126 203.403867,16.1430126 C201.803867,16.1430126 201.003867,16.1430126 199.403867,16.1430126 L198.603867,16.1430126 C198.603867,16.1430126 198.603867,16.1430126 197.803867,16.1430126 C188.203867,15.3430126 153.803867,16.1430126 129.803867,41.7430126 C109.003867,62.5430126 101.003867,96.1430126 104.203867,140.943013 C104.203867,145.743013 102.603867,151.343013 99.4038672,155.343013 C95.4038672,159.343013 90.6038672,161.743013 85.0038672,161.743013 L85.0038672,161.743013 C80.2038672,161.743013 74.6038672,160.943013 68.2038672,159.343013 C66.6038672,158.543013 64.2038672,160.143013 63.4038672,160.943013 C63.4038672,161.743013 63.4038672,161.743013 63.4038672,162.543013 C63.4038672,163.343013 64.2038672,164.143013 65.0038672,164.143013 C81.0038672,169.743013 99.4038672,182.543013 102.603867,199.343013 C104.203867,211.343013 99.4038672,222.543013 87.4038672,234.543013 Z" id="Shape" fill="#42210B"></path>
        </g>
    </g>
</svg>