<?xml version="1.0" encoding="UTF-8"?>
<svg width="485px" height="548px" viewBox="0 0 485 548" version="1.1" xmlns="http://www.w3.org/2000/svg" xmlns:xlink="http://www.w3.org/1999/xlink">
    <title>tiktok-white-logo-svg</title>
    <g id="Page-1" stroke="none" stroke-width="1" fill="none" fill-rule="evenodd">
        <g id="tiktok-white-logo-svg" transform="translate(0.498072, 0.000000)" fill-rule="nonzero">
            <g id="Group" transform="translate(-0.000000, 0.000000)" fill="#51B4C3">
                <path d="M23.0219277,393.54 C29.3319277,433.73 43.4619277,463.43 61.1919277,485.39 C33.3119277,462.73 9.20192774,427.02 0.36192774,370.82 C0.36192774,370.82 -17.1780723,192.38 191.951928,193.85 L192.321928,217.12 C6.73192774,228.07 23.0219277,393.54 23.0219277,393.54 L23.0219277,393.54 Z" id="Path"></path>
                <path d="M339.571928,22.72 L267.411928,22.72 L263.141928,398.41 C249.801928,456.91 190.711928,453.98 190.711928,453.98 C156.401928,454.44 138.401928,439.01 128.971928,422.52 C138.781928,428.02 151.531928,431.48 168.051928,431.26 C168.051928,431.26 227.141928,434.18 240.501928,375.69 L244.751928,0 L335.751928,0 C335.751928,0 336.391928,9.2 339.571928,22.72 L339.571928,22.72 Z M461.841928,129.99 L461.841928,150.83 C428.321928,145.24 405.581928,127.8 390.191928,107.53 C407.821928,120.77 431.111928,129.81 461.841928,129.99 L461.841928,129.99 Z" id="Shape"></path>
            </g>
            <g id="Group" transform="translate(61.201928, 22.720000)" fill="#D44E61">
                <path d="M154.86,287.94 C154.86,287.94 59.31,276.24 57.36,361.06 C57.36,361.06 57.09,381.13 67.78,399.81 C34.13,380.99 34.7193228,338.34 34.7193228,338.34 C36.67,253.52 132.21,265.22 132.21,265.22 L131.12,194.4 C138.25,194 145.66,193.81 153.39,193.86 L154.86,287.94 Z M328.99,84.8 C297.4,61.06 283.96,23.82 278.37,2.84217094e-14 L297.19,2.84217094e-14 C297.2,2.84217094e-14 300.52,47.27 328.99,84.8 Z" id="Shape"></path>
                <path d="M423.3,129.99 L423.3,219.69 C423.3,219.69 359.61,220.98 297.2,177.44 L295.91,365.29 C295.91,365.29 293.8,511.21 143.17,524.37 C143.17,524.37 54.55,530.19 -5.68434189e-14,462.66 C53.37,506.06 120.51,501.65 120.51,501.65 C271.14,488.48 273.25,342.57 273.25,342.57 L274.56,154.72 C336.96,198.26 400.65,196.97 400.65,196.97 L400.65,128.1 C407.7,129.29 415.25,129.94 423.3,129.99 Z" id="Path"></path>
            </g>
        </g>
    </g>
</svg>