<?xml version="1.0" encoding="UTF-8"?>
<svg width="256px" height="223px" viewBox="0 0 256 223" version="1.1" xmlns="http://www.w3.org/2000/svg" xmlns:xlink="http://www.w3.org/1999/xlink">
    <title>vimeo</title>
    <g id="Page-1" stroke="none" stroke-width="1" fill="none" fill-rule="evenodd">
        <g id="vimeo" transform="translate(0.000000, 0.333902)" fill="#32B8E8" fill-rule="nonzero">
            <path d="M255.876213,51.3285833 C254.737006,76.2964246 237.331453,110.485445 203.667236,153.877725 C168.861251,199.205378 139.413381,221.866645 115.323625,221.866645 C100.406409,221.866645 87.772727,208.068155 77.4609804,180.460937 C70.5694159,155.155174 63.6855314,129.85197 56.7965269,104.546207 C49.1343974,76.9543488 40.9193043,63.1404996 32.1358876,63.1404996 C30.2209952,63.1404996 23.5188719,67.1776457 12.0448778,75.2212176 L0,59.6742372 C12.6336816,48.5509653 25.0984021,37.4302535 37.3608813,26.2941815 C54.2109102,11.7046473 66.8599519,4.03227777 75.2900864,3.25659276 C95.2146951,1.33914037 107.477174,14.9840285 112.080084,44.1938172 C117.054196,75.7076208 120.494858,95.3096674 122.430231,102.982037 C128.172348,129.127486 134.490469,142.18357 141.394833,142.18357 C146.752948,142.18357 154.80164,133.704795 165.533229,116.747246 C176.254579,99.7845763 181.996696,86.8795329 182.772381,78.0141957 C184.298151,63.3760211 178.553473,56.0390137 165.533229,56.0390137 C159.40455,56.0390137 153.086429,57.4521428 146.586547,60.2451209 C159.166468,18.9546141 183.205023,-1.09799538 218.686853,0.0463320156 C244.991023,0.819457007 257.391743,17.9126874 255.876213,51.3285833" id="Path"></path>
        </g>
    </g>
</svg>